<svg width="319" height="493" viewBox="0 0 319 493" fill="none" xmlns="http://www.w3.org/2000/svg">
<rect x="106.5" y="1.5" width="212" height="318" stroke="black"/>
<rect x="0.5" y="221.5" width="212" height="271" stroke="black"/>
<path d="M91.768 150.392C92.4293 150.051 92.9307 149.645 93.272 149.176C93.6133 148.696 93.784 148.189 93.784 147.656C93.784 146.92 93.6187 146.349 93.288 145.944C92.9467 145.539 92.4933 145.336 91.928 145.336C91.5547 145.336 91.24 145.448 90.984 145.672C90.728 145.885 90.5253 146.157 90.376 146.488C90.216 146.808 90.0293 147.256 89.816 147.832C89.5493 148.568 89.2933 149.165 89.048 149.624C88.8027 150.083 88.456 150.472 88.008 150.792C87.56 151.112 86.984 151.272 86.28 151.272C85.6507 151.272 85.1013 151.112 84.632 150.792C84.1627 150.472 83.8053 150.029 83.56 149.464C83.3147 148.899 83.192 148.253 83.192 147.528C83.192 146.707 83.4213 145.971 83.88 145.32C84.328 144.659 85 144.168 85.896 143.848L86.44 145.368C85.8533 145.571 85.416 145.859 85.128 146.232C84.8293 146.605 84.6747 147.027 84.664 147.496C84.664 148.125 84.8133 148.632 85.112 149.016C85.4 149.389 85.7893 149.576 86.28 149.576C86.6533 149.576 86.968 149.469 87.224 149.256C87.48 149.032 87.6933 148.755 87.864 148.424C88.024 148.083 88.2107 147.629 88.424 147.064C88.712 146.328 88.9787 145.736 89.224 145.288C89.4693 144.84 89.816 144.456 90.264 144.136C90.7013 143.816 91.2613 143.656 91.944 143.656C92.5947 143.656 93.1707 143.816 93.672 144.136C94.1733 144.456 94.5627 144.92 94.84 145.528C95.1173 146.125 95.256 146.829 95.256 147.64C95.256 148.504 95.0267 149.288 94.568 149.992C94.0987 150.696 93.4267 151.299 92.552 151.8L91.768 150.392ZM93.768 136.21C93.768 135.389 93.5813 134.663 93.208 134.034C92.824 133.394 92.2907 132.903 91.608 132.562C90.9147 132.21 90.12 132.034 89.224 132.034C88.328 132.034 87.5387 132.21 86.856 132.562C86.1627 132.903 85.6293 133.394 85.256 134.034C84.872 134.663 84.68 135.389 84.68 136.21C84.68 137.031 84.872 137.757 85.256 138.386C85.6293 139.015 86.1627 139.506 86.856 139.858C87.5387 140.199 88.328 140.37 89.224 140.37C90.12 140.37 90.9147 140.199 91.608 139.858C92.2907 139.506 92.824 139.015 93.208 138.386C93.5813 137.757 93.768 137.031 93.768 136.21ZM83.192 136.21C83.192 135.069 83.448 134.055 83.96 133.17C84.472 132.274 85.1867 131.575 86.104 131.074C87.0213 130.573 88.0613 130.322 89.224 130.322C90.3867 130.322 91.4267 130.573 92.344 131.074C93.2613 131.575 93.976 132.274 94.488 133.17C95 134.055 95.256 135.069 95.256 136.21C95.256 137.341 95 138.354 94.488 139.25C93.976 140.135 93.2613 140.829 92.344 141.33C91.4267 141.831 90.3867 142.082 89.224 142.082C88.0613 142.082 87.0213 141.831 86.104 141.33C85.1867 140.829 84.472 140.135 83.96 139.25C83.448 138.354 83.192 137.341 83.192 136.21ZM95.128 119.017V120.857L86.232 126.713H95.128V128.409H83.32V126.569L92.2 120.729H83.32V119.017H95.128ZM89.96 105.518C91.048 105.518 91.9867 105.753 92.776 106.222C93.5653 106.681 94.1733 107.326 94.6 108.158C95.016 108.99 95.2347 109.956 95.256 111.055C95.256 112.185 95 113.199 94.488 114.095C93.976 114.98 93.2613 115.673 92.344 116.175C91.4267 116.676 90.3867 116.927 89.224 116.927C88.0613 116.927 87.0267 116.676 86.12 116.175C85.2027 115.673 84.488 114.98 83.976 114.095C83.464 113.199 83.208 112.185 83.208 111.055C83.208 109.956 83.4213 109.038 83.848 108.302C84.264 107.566 84.6747 107.049 85.08 106.75C85.4853 106.452 85.8107 106.222 86.056 106.062L86.808 107.518C86.6267 107.636 86.3867 107.801 86.088 108.014C85.7893 108.217 85.4853 108.585 85.176 109.118C84.856 109.641 84.696 110.287 84.696 111.055C84.696 111.876 84.888 112.606 85.272 113.247C85.6453 113.876 86.1733 114.367 86.856 114.719C87.5387 115.06 88.328 115.231 89.224 115.231C90.12 115.231 90.9147 115.06 91.608 114.719C92.2907 114.367 92.824 113.876 93.208 113.247C93.5813 112.606 93.768 111.876 93.768 111.055C93.736 109.913 93.4373 108.985 92.872 108.271C92.296 107.556 91.4533 107.193 90.344 107.182V110.863H88.936V105.502L89.96 105.518ZM90.52 93.7015H95.128V95.3975H90.52L83.32 99.5095V97.5415L88.648 94.5495L83.32 91.5575V89.5895L90.52 93.7015ZM93.768 83.6181C93.768 82.7968 93.5813 82.0715 93.208 81.4421C92.824 80.8021 92.2907 80.3115 91.608 79.9701C90.9147 79.6181 90.12 79.4421 89.224 79.4421C88.328 79.4421 87.5387 79.6181 86.856 79.9701C86.1627 80.3115 85.6293 80.8021 85.256 81.4421C84.872 82.0715 84.68 82.7968 84.68 83.6181C84.68 84.4395 84.872 85.1648 85.256 85.7941C85.6293 86.4235 86.1627 86.9141 86.856 87.2661C87.5387 87.6075 88.328 87.7781 89.224 87.7781C90.12 87.7781 90.9147 87.6075 91.608 87.2661C92.2907 86.9141 92.824 86.4235 93.208 85.7941C93.5813 85.1648 93.768 84.4395 93.768 83.6181ZM83.192 83.6181C83.192 82.4768 83.448 81.4635 83.96 80.5781C84.472 79.6821 85.1867 78.9835 86.104 78.4821C87.0213 77.9808 88.0613 77.7301 89.224 77.7301C90.3867 77.7301 91.4267 77.9808 92.344 78.4821C93.2613 78.9835 93.976 79.6821 94.488 80.5781C95 81.4635 95.256 82.4768 95.256 83.6181C95.256 84.7488 95 85.7621 94.488 86.6581C93.976 87.5435 93.2613 88.2368 92.344 88.7381C91.4267 89.2395 90.3867 89.4901 89.224 89.4901C88.0613 89.4901 87.0213 89.2395 86.104 88.7381C85.1867 88.2368 84.472 87.5435 83.96 86.6581C83.448 85.7621 83.192 84.7488 83.192 83.6181ZM95.24 71.2255C95.24 72.1535 95.0373 72.9588 94.632 73.6415C94.2267 74.3242 93.6667 74.8468 92.952 75.2095C92.2267 75.5615 91.3947 75.7375 90.456 75.7375H83.32V74.0415H90.456C91.448 74.0415 92.232 73.8015 92.808 73.3215C93.384 72.8415 93.672 72.1428 93.672 71.2255C93.672 70.3082 93.384 69.6095 92.808 69.1295C92.232 68.6495 91.448 68.4095 90.456 68.4095H83.32V66.6975H90.456C91.3947 66.6975 92.2267 66.8788 92.952 67.2415C93.6667 67.6042 94.2267 68.1268 94.632 68.8095C95.0373 69.4922 95.24 70.2975 95.24 71.2255ZM91.768 63.3637C92.4293 63.0224 92.9307 62.6171 93.272 62.1477C93.6133 61.6677 93.784 61.1611 93.784 60.6277C93.784 59.8917 93.6187 59.3211 93.288 58.9157C92.9467 58.5104 92.4933 58.3077 91.928 58.3077C91.5547 58.3077 91.24 58.4197 90.984 58.6437C90.728 58.8571 90.5253 59.1291 90.376 59.4597C90.216 59.7797 90.0293 60.2277 89.816 60.8037C89.5493 61.5397 89.2933 62.1371 89.048 62.5957C88.8027 63.0544 88.456 63.4437 88.008 63.7637C87.56 64.0837 86.984 64.2437 86.28 64.2437C85.6507 64.2437 85.1013 64.0837 84.632 63.7637C84.1627 63.4437 83.8053 63.0011 83.56 62.4357C83.3147 61.8704 83.192 61.2251 83.192 60.4997C83.192 59.6784 83.4213 58.9424 83.88 58.2917C84.328 57.6304 85 57.1397 85.896 56.8197L86.44 58.3397C85.8533 58.5424 85.416 58.8304 85.128 59.2037C84.8293 59.5771 84.6747 59.9984 84.664 60.4677C84.664 61.0971 84.8133 61.6037 85.112 61.9877C85.4 62.3611 85.7893 62.5477 86.28 62.5477C86.6533 62.5477 86.968 62.4411 87.224 62.2277C87.48 62.0037 87.6933 61.7264 87.864 61.3957C88.024 61.0544 88.2107 60.6011 88.424 60.0357C88.712 59.2997 88.9787 58.7077 89.224 58.2597C89.4693 57.8117 89.816 57.4277 90.264 57.1077C90.7013 56.7877 91.2613 56.6277 91.944 56.6277C92.5947 56.6277 93.1707 56.7877 93.672 57.1077C94.1733 57.4277 94.5627 57.8917 94.84 58.4997C95.1173 59.0971 95.256 59.8011 95.256 60.6117C95.256 61.4757 95.0267 62.2597 94.568 62.9637C94.0987 63.6677 93.4267 64.2704 92.552 64.7717L91.768 63.3637ZM95.24 50.0075C95.24 50.9355 95.0373 51.7408 94.632 52.4235C94.2267 53.1062 93.6667 53.6288 92.952 53.9915C92.2267 54.3435 91.3947 54.5195 90.456 54.5195H83.32V52.8235H90.456C91.448 52.8235 92.232 52.5835 92.808 52.1035C93.384 51.6235 93.672 50.9248 93.672 50.0075C93.672 49.0902 93.384 48.3915 92.808 47.9115C92.232 47.4315 91.448 47.1915 90.456 47.1915H83.32V45.4795H90.456C91.3947 45.4795 92.2267 45.6608 92.952 46.0235C93.6667 46.3862 94.2267 46.9088 94.632 47.5915C95.0373 48.2742 95.24 49.0795 95.24 50.0075ZM95.128 33.6294V35.4694L86.232 41.3254H95.128V43.0214H83.32V41.1814L92.2 35.3414H83.32V33.6294H95.128ZM83.304 25.4589H95.16V26.8029H83.304V25.4589ZM84.808 11.1286V16.9046H88.472V12.0086H89.944V16.9046H95.128V18.6006H83.32V11.1286H84.808ZM84.808 1.56651V7.50251H88.312V2.39851H89.784V7.50251H93.64V1.56651H95.128L95.128 9.19851H83.32V1.56651H84.808Z" fill="black"/>
<path d="M184.96 164.256C183.829 164.256 182.821 164 181.936 163.488C181.061 162.976 180.373 162.261 179.872 161.344C179.381 160.427 179.136 159.387 179.136 158.224C179.136 157.051 179.381 156.011 179.872 155.104C180.373 154.187 181.061 153.472 181.936 152.96C182.821 152.448 183.829 152.192 184.96 152.192C185.749 152.192 186.496 152.347 187.2 152.656C187.904 152.965 188.528 153.397 189.072 153.952L187.952 155.056C187.589 154.629 187.141 154.293 186.608 154.048C186.085 153.803 185.531 153.68 184.944 153.68C184.133 153.68 183.419 153.872 182.8 154.256C182.181 154.629 181.701 155.163 181.36 155.856C181.019 156.539 180.848 157.328 180.848 158.224C180.848 159.12 181.019 159.915 181.36 160.608C181.701 161.291 182.181 161.824 182.8 162.208C183.419 162.581 184.133 162.768 184.944 162.768C185.541 162.768 186.091 162.645 186.592 162.4C187.093 162.155 187.525 161.829 187.888 161.424L189.072 162.496C187.899 163.68 186.528 164.267 184.96 164.256ZM200.162 164.128H198.45V158.8H192.882V164.128H191.186V152.32H192.882V157.328H198.45V152.32H200.162V164.128ZM208.18 162.768C209.002 162.768 209.727 162.581 210.356 162.208C210.996 161.824 211.487 161.291 211.828 160.608C212.18 159.915 212.356 159.12 212.356 158.224C212.356 157.328 212.18 156.539 211.828 155.856C211.487 155.163 210.996 154.629 210.356 154.256C209.727 153.872 209.002 153.68 208.18 153.68C207.359 153.68 206.634 153.872 206.004 154.256C205.375 154.629 204.884 155.163 204.532 155.856C204.191 156.539 204.02 157.328 204.02 158.224C204.02 159.12 204.191 159.915 204.532 160.608C204.884 161.291 205.375 161.824 206.004 162.208C206.634 162.581 207.359 162.768 208.18 162.768ZM208.18 152.192C209.322 152.192 210.335 152.448 211.22 152.96C212.116 153.472 212.815 154.187 213.316 155.104C213.818 156.021 214.068 157.061 214.068 158.224C214.068 159.387 213.818 160.427 213.316 161.344C212.815 162.261 212.116 162.976 211.22 163.488C210.335 164 209.322 164.256 208.18 164.256C207.05 164.256 206.036 164 205.14 163.488C204.255 162.976 203.562 162.261 203.06 161.344C202.559 160.427 202.308 159.387 202.308 158.224C202.308 157.061 202.559 156.021 203.06 155.104C203.562 154.187 204.255 153.472 205.14 152.96C206.036 152.448 207.05 152.192 208.18 152.192ZM217.913 152.32V164.128H216.217V152.32H217.913ZM230.905 160.528C230.905 161.243 230.745 161.883 230.425 162.448C230.116 163.013 229.679 163.456 229.113 163.776C228.548 164.085 227.908 164.24 227.193 164.24C226.5 164.24 225.833 164.037 225.193 163.632C224.564 163.216 224.1 162.688 223.801 162.048L225.321 161.312C225.524 161.739 225.796 162.085 226.137 162.352C226.489 162.619 226.847 162.752 227.209 162.752C227.796 162.752 228.271 162.544 228.633 162.128C229.007 161.712 229.193 161.179 229.193 160.528V152.32H230.905V160.528ZM235.13 152.32V164.128H233.434V152.32H235.13ZM249.371 164.128H247.787L245.019 155.248L242.411 164.128H240.811L237.211 152.32H238.987L241.611 161.088L244.107 152.336H245.915L248.475 161.088L250.875 152.32H252.651L249.371 164.128ZM259.053 162.768C259.874 162.768 260.6 162.581 261.229 162.208C261.869 161.824 262.36 161.291 262.701 160.608C263.053 159.915 263.229 159.12 263.229 158.224C263.229 157.328 263.053 156.539 262.701 155.856C262.36 155.163 261.869 154.629 261.229 154.256C260.6 153.872 259.874 153.68 259.053 153.68C258.232 153.68 257.506 153.872 256.877 154.256C256.248 154.629 255.757 155.163 255.405 155.856C255.064 156.539 254.893 157.328 254.893 158.224C254.893 159.12 255.064 159.915 255.405 160.608C255.757 161.291 256.248 161.824 256.877 162.208C257.506 162.581 258.232 162.768 259.053 162.768ZM259.053 152.192C260.194 152.192 261.208 152.448 262.093 152.96C262.989 153.472 263.688 154.187 264.189 155.104C264.69 156.021 264.941 157.061 264.941 158.224C264.941 159.387 264.69 160.427 264.189 161.344C263.688 162.261 262.989 162.976 262.093 163.488C261.208 164 260.194 164.256 259.053 164.256C257.922 164.256 256.909 164 256.013 163.488C255.128 162.976 254.434 162.261 253.933 161.344C253.432 160.427 253.181 159.387 253.181 158.224C253.181 157.061 253.432 156.021 253.933 155.104C254.434 154.187 255.128 153.472 256.013 152.96C256.909 152.448 257.922 152.192 259.053 152.192ZM276.246 164.128H274.406L268.55 155.232V164.128H266.854V152.32H268.694L274.534 161.2V152.32H276.246V164.128ZM284.416 152.304V164.16H283.072V152.304H284.416ZM298.747 153.808H292.971V157.472H297.867V158.944H292.971V164.128H291.275V152.32H298.747V153.808ZM308.309 153.808H302.373V157.312H307.477V158.784H302.373V162.64H308.309V164.128H300.677V152.32H308.309V153.808Z" fill="black"/>
<path d="M19.272 365.128H17.56V359.8H11.992V365.128H10.296V353.32H11.992V358.328H17.56V353.32H19.272V365.128ZM33.514 365.128H31.93L29.162 356.248L26.554 365.128H24.954L21.354 353.32H23.13L25.754 362.088L28.25 353.336H30.058L32.618 362.088L35.018 353.32H36.794L33.514 365.128ZM47.231 365.128H45.423L44.239 361.912H39.391L38.159 365.128H36.351L40.815 353.32H42.847L47.231 365.128ZM43.679 360.44L41.839 355.464L39.935 360.44H43.679ZM58.5451 365.128H56.7051L50.8491 356.232V365.128H49.1531V353.32H50.9931L56.8331 362.2V353.32H58.5451V365.128ZM72.0436 359.96C72.0436 361.048 71.809 361.987 71.3396 362.776C70.881 363.565 70.2356 364.173 69.4036 364.6C68.5716 365.016 67.6063 365.235 66.5076 365.256C65.377 365.256 64.3636 365 63.4676 364.488C62.5823 363.976 61.889 363.261 61.3876 362.344C60.8863 361.427 60.6356 360.387 60.6356 359.224C60.6356 358.061 60.8863 357.027 61.3876 356.12C61.889 355.203 62.5823 354.488 63.4676 353.976C64.3636 353.464 65.377 353.208 66.5076 353.208C67.6063 353.208 68.5236 353.421 69.2596 353.848C69.9956 354.264 70.513 354.675 70.8116 355.08C71.1103 355.485 71.3396 355.811 71.4996 356.056L70.0436 356.808C69.9263 356.627 69.761 356.387 69.5476 356.088C69.345 355.789 68.977 355.485 68.4436 355.176C67.921 354.856 67.2756 354.696 66.5076 354.696C65.6863 354.696 64.9556 354.888 64.3156 355.272C63.6863 355.645 63.1956 356.173 62.8436 356.856C62.5023 357.539 62.3316 358.328 62.3316 359.224C62.3316 360.12 62.5023 360.915 62.8436 361.608C63.1956 362.291 63.6863 362.824 64.3156 363.208C64.9556 363.581 65.6863 363.768 66.5076 363.768C67.649 363.736 68.577 363.437 69.2916 362.872C70.0063 362.296 70.369 361.453 70.3796 360.344H66.6996V358.936H72.0596L72.0436 359.96ZM79.6526 361.768C79.994 362.429 80.3993 362.931 80.8686 363.272C81.3486 363.613 81.8553 363.784 82.3886 363.784C83.1246 363.784 83.6953 363.619 84.1006 363.288C84.506 362.947 84.7086 362.493 84.7086 361.928C84.7086 361.555 84.5966 361.24 84.3726 360.984C84.1593 360.728 83.8873 360.525 83.5566 360.376C83.2366 360.216 82.7886 360.029 82.2126 359.816C81.4766 359.549 80.8793 359.293 80.4206 359.048C79.962 358.803 79.5726 358.456 79.2526 358.008C78.9326 357.56 78.7726 356.984 78.7726 356.28C78.7726 355.651 78.9326 355.101 79.2526 354.632C79.5726 354.163 80.0153 353.805 80.5806 353.56C81.146 353.315 81.7913 353.192 82.5166 353.192C83.338 353.192 84.074 353.421 84.7246 353.88C85.386 354.328 85.8766 355 86.1966 355.896L84.6766 356.44C84.474 355.853 84.186 355.416 83.8126 355.128C83.4393 354.829 83.018 354.675 82.5486 354.664C81.9193 354.664 81.4126 354.813 81.0286 355.112C80.6553 355.4 80.4686 355.789 80.4686 356.28C80.4686 356.653 80.5753 356.968 80.7886 357.224C81.0126 357.48 81.29 357.693 81.6206 357.864C81.962 358.024 82.4153 358.211 82.9806 358.424C83.7166 358.712 84.3086 358.979 84.7566 359.224C85.2046 359.469 85.5886 359.816 85.9086 360.264C86.2286 360.701 86.3886 361.261 86.3886 361.944C86.3886 362.595 86.2286 363.171 85.9086 363.672C85.5886 364.173 85.1246 364.563 84.5166 364.84C83.9193 365.117 83.2153 365.256 82.4046 365.256C81.5406 365.256 80.7566 365.027 80.0526 364.568C79.3486 364.099 78.746 363.427 78.2446 362.552L79.6526 361.768ZM96.3115 354.808H90.3755V358.312H95.4795V359.784H90.3755V363.64H96.3115V365.128H88.6795V353.32H96.3115V354.808ZM104.006 363.768C104.827 363.768 105.553 363.581 106.182 363.208C106.822 362.824 107.313 362.291 107.654 361.608C108.006 360.915 108.182 360.12 108.182 359.224C108.182 358.328 108.006 357.539 107.654 356.856C107.313 356.163 106.822 355.629 106.182 355.256C105.553 354.872 104.827 354.68 104.006 354.68C103.185 354.68 102.459 354.872 101.83 355.256C101.201 355.629 100.71 356.163 100.358 356.856C100.017 357.539 99.8461 358.328 99.8461 359.224C99.8461 360.12 100.017 360.915 100.358 361.608C100.71 362.291 101.201 362.824 101.83 363.208C102.459 363.581 103.185 363.768 104.006 363.768ZM104.006 353.192C105.147 353.192 106.161 353.448 107.046 353.96C107.942 354.472 108.641 355.187 109.142 356.104C109.643 357.021 109.894 358.061 109.894 359.224C109.894 360.387 109.643 361.427 109.142 362.344C108.641 363.261 107.942 363.976 107.046 364.488C106.161 365 105.147 365.256 104.006 365.256C102.875 365.256 101.862 365 100.966 364.488C100.081 363.976 99.3875 363.261 98.8861 362.344C98.3848 361.427 98.1341 360.387 98.1341 359.224C98.1341 358.061 98.3848 357.021 98.8861 356.104C99.3875 355.187 100.081 354.472 100.966 353.96C101.862 353.448 102.875 353.192 104.006 353.192ZM121.353 365.128H119.545L118.361 361.912H113.513L112.281 365.128H110.473L114.937 353.32H116.969L121.353 365.128ZM117.801 360.44L115.961 355.464L114.057 360.44H117.801ZM132.299 365.128H130.587V359.8H125.019V365.128H123.323V353.32H125.019V358.328H130.587V353.32H132.299V365.128ZM140.525 353.304V365.16H139.181V353.304H140.525ZM147.4 353.32H151.336C151.954 353.32 152.509 353.459 153 353.736C153.49 354.003 153.874 354.381 154.152 354.872C154.429 355.363 154.568 355.917 154.568 356.536C154.568 356.899 154.477 357.277 154.296 357.672C154.125 358.067 153.896 358.413 153.608 358.712L154.024 358.968C154.472 359.256 154.834 359.661 155.112 360.184C155.4 360.707 155.544 361.235 155.544 361.768C155.544 362.419 155.405 363 155.128 363.512C154.85 364.013 154.466 364.408 153.976 364.696C153.485 364.984 152.925 365.128 152.296 365.128H147.4V353.32ZM152.12 363.64C152.642 363.64 153.064 363.469 153.384 363.128C153.704 362.787 153.864 362.339 153.864 361.784C153.864 361.187 153.704 360.707 153.384 360.344C153.064 359.971 152.642 359.784 152.12 359.784H149.096V363.64H152.12ZM151.368 358.312C151.826 358.291 152.194 358.125 152.472 357.816C152.76 357.507 152.904 357.107 152.904 356.616C152.904 356.072 152.744 355.635 152.424 355.304C152.114 354.973 151.704 354.808 151.192 354.808H149.096V358.312H151.368ZM165.168 354.808H159.232V358.312H164.336V359.784H159.232V363.64H165.168V365.128H157.536V353.32H165.168V354.808Z" fill="black"/>
<path d="M170.429 264.213L163.175 250.368C162.651 249.367 161.218 249.367 160.694 250.368L154.561 262.072C154.061 263.026 152.718 263.083 152.139 262.175L144.5 250.198C143.899 249.257 142.492 249.362 142.039 250.383L135.895 264.213C132.509 273.686 131.278 292.705 153.439 292.996C181.141 293.36 173.015 268.767 179.848 264.213C186.681 259.659 193.145 268.95 187.605 274.779" stroke="#333D4B" stroke-width="5.2741" stroke-linecap="round"/>
<path fill-rule="evenodd" clip-rule="evenodd" d="M148.645 283.907C151.21 285.988 155.675 284.734 158.62 281.106C161.565 277.478 161.873 272.849 159.309 270.768C156.745 268.687 152.279 269.941 149.334 273.569C146.39 277.197 146.081 281.826 148.645 283.907ZM150.378 281.385C151.059 279.019 153.329 275.138 157.17 273.134C157.3 273.066 157.438 273.193 157.378 273.327C156.32 275.664 153.453 279.854 150.597 281.553C150.478 281.624 150.339 281.518 150.378 281.385Z" fill="#333D4B"/>
<path d="M223.36 359.96V365.304H221.872V358.264H233.68V359.96H223.36ZM233.68 369.242H221.872V367.546H233.68V369.242ZM230.56 373.491H221.872V371.795H233.68V373.635L226.464 377.747L233.68 381.843V383.699H221.872V382.003H230.56L224.336 378.483V376.995L230.56 373.491ZM227.04 401.262C225.952 401.262 225.013 401.028 224.224 400.558C223.435 400.1 222.827 399.454 222.4 398.622C221.984 397.79 221.765 396.825 221.744 395.726C221.744 394.596 222 393.582 222.512 392.686C223.024 391.801 223.739 391.108 224.656 390.606C225.573 390.105 226.613 389.854 227.776 389.854C228.939 389.854 229.973 390.105 230.88 390.606C231.797 391.108 232.512 391.801 233.024 392.686C233.536 393.582 233.792 394.596 233.792 395.726C233.792 396.825 233.579 397.742 233.152 398.478C232.736 399.214 232.325 399.732 231.92 400.03C231.515 400.329 231.189 400.558 230.944 400.718L230.192 399.262C230.373 399.145 230.613 398.98 230.912 398.766C231.211 398.564 231.515 398.196 231.824 397.662C232.144 397.14 232.304 396.494 232.304 395.726C232.304 394.905 232.112 394.174 231.728 393.534C231.355 392.905 230.827 392.414 230.144 392.062C229.461 391.721 228.672 391.55 227.776 391.55C226.88 391.55 226.085 391.721 225.392 392.062C224.709 392.414 224.176 392.905 223.792 393.534C223.419 394.174 223.232 394.905 223.232 395.726C223.264 396.868 223.563 397.796 224.128 398.51C224.704 399.225 225.547 399.588 226.656 399.598V395.918H228.064V401.278L227.04 401.262ZM221.872 412.886V411.078L225.088 409.894V405.046L221.872 403.814V402.006L233.68 406.47V408.502L221.872 412.886ZM226.56 409.334L231.536 407.494L226.56 405.59V409.334ZM221.872 423.832V422.12H227.2V416.552H221.872V414.856H233.68V416.552H228.672V422.12H233.68V423.832H221.872ZM226.48 431.61H221.872V429.914H226.48L233.68 425.802V427.77L228.352 430.762L233.68 433.754V435.722L226.48 431.61ZM221.76 442.227C221.76 441.299 221.963 440.494 222.368 439.811C222.773 439.129 223.333 438.606 224.048 438.243C224.773 437.891 225.605 437.715 226.544 437.715H233.68V439.411H226.544C225.552 439.411 224.768 439.651 224.192 440.131C223.616 440.611 223.328 441.31 223.328 442.227C223.328 443.145 223.616 443.843 224.192 444.323C224.768 444.803 225.552 445.043 226.544 445.043H233.68V446.755H226.544C225.605 446.755 224.773 446.574 224.048 446.211C223.333 445.849 222.773 445.326 222.368 444.643C221.963 443.961 221.76 443.155 221.76 442.227ZM221.872 458.605V456.765L230.768 450.909H221.872V449.213H233.68V451.053L224.8 456.893H233.68V458.605H221.872ZM233.696 466.776H221.84V465.432H233.696V466.776ZM233.68 473.65V477.586C233.68 478.205 233.541 478.759 233.264 479.25C232.997 479.741 232.619 480.125 232.128 480.402C231.637 480.679 231.083 480.818 230.464 480.818C230.101 480.818 229.723 480.727 229.328 480.546C228.933 480.375 228.587 480.146 228.288 479.858L228.032 480.274C227.744 480.722 227.339 481.085 226.816 481.362C226.293 481.65 225.765 481.794 225.232 481.794C224.581 481.794 224 481.655 223.488 481.378C222.987 481.101 222.592 480.717 222.304 480.226C222.016 479.735 221.872 479.175 221.872 478.546V473.65H233.68ZM223.36 478.37C223.36 478.893 223.531 479.314 223.872 479.634C224.213 479.954 224.661 480.114 225.216 480.114C225.813 480.114 226.293 479.954 226.656 479.634C227.029 479.314 227.216 478.893 227.216 478.37V475.346H223.36V478.37ZM228.688 477.618C228.709 478.077 228.875 478.445 229.184 478.722C229.493 479.01 229.893 479.154 230.384 479.154C230.928 479.154 231.365 478.994 231.696 478.674C232.027 478.365 232.192 477.954 232.192 477.442V475.346H228.688V477.618ZM232.192 491.418V485.482H228.688V490.586H227.216V485.482H223.36V491.418H221.872V483.786H233.68V491.418H232.192Z" fill="black"/>
<path d="M130.948 27.006C131.713 27.006 132.395 26.8333 132.992 26.488C133.589 26.1427 134.051 25.6667 134.378 25.06C134.714 24.444 134.882 23.7393 134.882 22.946C134.882 22.1527 134.714 21.4527 134.378 20.846C134.051 20.23 133.589 19.7493 132.992 19.404C132.395 19.0587 131.713 18.886 130.948 18.886H129.38V27.006H130.948ZM130.948 17.85C131.928 17.85 132.801 18.0693 133.566 18.508C134.341 18.9373 134.943 19.5393 135.372 20.314C135.811 21.0793 136.03 21.9567 136.03 22.946C136.03 23.9353 135.811 24.8173 135.372 25.592C134.943 26.3573 134.341 26.9593 133.566 27.398C132.801 27.8273 131.928 28.042 130.948 28.042H128.204V17.85H130.948ZM140.449 28.098C139.842 28.098 139.301 27.958 138.825 27.678C138.358 27.398 137.99 27.0107 137.719 26.516C137.458 26.012 137.327 25.4427 137.327 24.808C137.327 24.1733 137.458 23.6087 137.719 23.114C137.99 22.61 138.358 22.218 138.825 21.938C139.301 21.658 139.842 21.518 140.449 21.518C141.298 21.518 141.928 21.728 142.339 22.148C142.75 22.568 143.016 22.9507 143.137 23.296C143.324 23.7813 143.417 24.3133 143.417 24.892L143.403 25.312H138.503C138.587 25.8253 138.811 26.25 139.175 26.586C139.539 26.9127 139.964 27.076 140.449 27.076C141.28 27.076 141.9 26.754 142.311 26.11L143.235 26.586C143.048 26.9967 142.712 27.3513 142.227 27.65C141.751 27.9487 141.158 28.098 140.449 28.098ZM142.269 24.304C142.12 23.128 141.513 22.54 140.449 22.54C139.954 22.54 139.525 22.708 139.161 23.044C138.806 23.3707 138.587 23.7953 138.503 24.318L142.269 24.304ZM145.688 25.956C145.856 26.32 146.099 26.6 146.416 26.796C146.734 26.9827 147.032 27.076 147.312 27.076C147.714 27.076 148.036 26.9967 148.278 26.838C148.53 26.6793 148.656 26.46 148.656 26.18C148.656 26.012 148.591 25.872 148.46 25.76C148.33 25.648 148.18 25.5593 148.012 25.494C147.844 25.4193 147.574 25.3167 147.2 25.186C146.752 25.0273 146.388 24.8873 146.108 24.766C145.828 24.6353 145.581 24.444 145.366 24.192C145.152 23.94 145.044 23.6227 145.044 23.24C145.044 22.6987 145.264 22.2647 145.702 21.938C146.15 21.6113 146.706 21.448 147.368 21.448C147.648 21.448 147.947 21.504 148.264 21.616C148.591 21.728 148.885 21.9053 149.146 22.148C149.408 22.3907 149.585 22.694 149.678 23.058L148.656 23.408C148.563 23.0627 148.39 22.8247 148.138 22.694C147.886 22.554 147.63 22.484 147.368 22.484C147.023 22.484 146.743 22.554 146.528 22.694C146.314 22.8247 146.206 23.0067 146.206 23.24C146.206 23.408 146.267 23.548 146.388 23.66C146.519 23.772 146.664 23.8607 146.822 23.926C146.981 23.9913 147.261 24.0893 147.662 24.22C148.11 24.3787 148.474 24.5233 148.754 24.654C149.044 24.7847 149.291 24.976 149.496 25.228C149.711 25.48 149.818 25.7973 149.818 26.18C149.818 26.7587 149.58 27.2253 149.104 27.58C148.638 27.9253 148.04 28.098 147.312 28.098C146.799 28.098 146.309 27.958 145.842 27.678C145.376 27.398 145.012 27.0107 144.75 26.516L145.688 25.956ZM152.633 21.504V28.042H151.471V21.504H152.633ZM152.059 18.27C152.264 18.27 152.432 18.3353 152.563 18.466C152.694 18.5967 152.759 18.7647 152.759 18.97C152.759 19.1753 152.694 19.348 152.563 19.488C152.432 19.6187 152.264 19.684 152.059 19.684C151.854 19.684 151.681 19.6187 151.541 19.488C151.41 19.348 151.345 19.1753 151.345 18.97C151.345 18.7647 151.41 18.5967 151.541 18.466C151.681 18.3353 151.854 18.27 152.059 18.27ZM157.593 27.076C157.957 27.076 158.288 26.9733 158.587 26.768C158.895 26.5627 159.133 26.2873 159.301 25.942C159.478 25.5967 159.567 25.2187 159.567 24.808C159.567 24.4067 159.478 24.0333 159.301 23.688C159.124 23.3333 158.886 23.0533 158.587 22.848C158.288 22.6427 157.957 22.54 157.593 22.54C157.014 22.54 156.538 22.7547 156.165 23.184C155.801 23.604 155.619 24.1453 155.619 24.808C155.619 25.48 155.801 26.026 156.165 26.446C156.529 26.866 157.005 27.076 157.593 27.076ZM160.743 27.622C160.743 28.2567 160.608 28.8307 160.337 29.344C160.076 29.8667 159.698 30.2773 159.203 30.576C158.718 30.8747 158.158 31.024 157.523 31.024C156.972 31.024 156.464 30.898 155.997 30.646C155.53 30.394 155.138 30.016 154.821 29.512L155.773 28.91C156.212 29.6193 156.795 29.974 157.523 29.974C158.148 29.974 158.643 29.75 159.007 29.302C159.38 28.8633 159.567 28.3127 159.567 27.65V26.95C159.334 27.2953 159.03 27.5753 158.657 27.79C158.284 28.0047 157.915 28.112 157.551 28.112C156.954 28.112 156.422 27.972 155.955 27.692C155.488 27.412 155.12 27.0247 154.849 26.53C154.588 26.026 154.457 25.4567 154.457 24.822C154.457 24.1873 154.588 23.618 154.849 23.114C155.12 22.61 155.488 22.218 155.955 21.938C156.422 21.6487 156.954 21.504 157.551 21.504C157.952 21.504 158.335 21.6067 158.699 21.812C159.063 22.008 159.352 22.2787 159.567 22.624V21.504H160.743V27.622ZM167.187 24.29C167.187 23.7673 167.047 23.3473 166.767 23.03C166.487 22.7127 166.113 22.554 165.647 22.554C165.143 22.554 164.723 22.7267 164.387 23.072C164.051 23.408 163.883 23.814 163.883 24.29V28.042H162.721V21.518H163.883V22.47C164.107 22.19 164.387 21.9613 164.723 21.784C165.059 21.6067 165.385 21.518 165.703 21.518C166.188 21.518 166.631 21.6253 167.033 21.84C167.434 22.0547 167.751 22.3673 167.985 22.778C168.227 23.1793 168.349 23.6553 168.349 24.206V28.042H167.187V24.29Z" fill="black"/>
<path d="M144.09 53.042H142.788L138.952 42.85H140.198L143.432 51.418L146.484 42.85H147.73L144.09 53.042ZM151.175 52.09C151.754 52.09 152.225 51.88 152.589 51.46C152.953 51.04 153.135 50.494 153.135 49.822C153.135 49.15 152.953 48.604 152.589 48.184C152.225 47.7547 151.754 47.54 151.175 47.54C150.597 47.54 150.125 47.75 149.761 48.17C149.407 48.59 149.229 49.1407 149.229 49.822C149.229 50.5033 149.407 51.054 149.761 51.474C150.125 51.8847 150.597 52.09 151.175 52.09ZM151.175 46.504C151.782 46.504 152.323 46.6487 152.799 46.938C153.275 47.218 153.644 47.61 153.905 48.114C154.176 48.618 154.311 49.1873 154.311 49.822C154.311 50.4567 154.176 51.026 153.905 51.53C153.644 52.0247 153.275 52.4167 152.799 52.706C152.323 52.986 151.782 53.126 151.175 53.126C150.578 53.126 150.041 52.986 149.565 52.706C149.099 52.4167 148.73 52.0247 148.459 51.53C148.198 51.026 148.067 50.4567 148.067 49.822C148.067 49.1873 148.198 48.618 148.459 48.114C148.73 47.61 149.099 47.218 149.565 46.938C150.041 46.6487 150.578 46.504 151.175 46.504ZM156.363 47.54H155.173V46.504H156.363V44.25H157.539V46.504H159.079V47.54H157.539V53.042H156.363V47.54ZM161.705 46.504V53.042H160.543V46.504H161.705ZM161.131 43.27C161.337 43.27 161.505 43.3353 161.635 43.466C161.766 43.5967 161.831 43.7647 161.831 43.97C161.831 44.1753 161.766 44.348 161.635 44.488C161.505 44.6187 161.337 44.684 161.131 44.684C160.926 44.684 160.753 44.6187 160.613 44.488C160.483 44.348 160.417 44.1753 160.417 43.97C160.417 43.7647 160.483 43.5967 160.613 43.466C160.753 43.3353 160.926 43.27 161.131 43.27ZM168.261 49.29C168.261 48.7673 168.121 48.3473 167.841 48.03C167.561 47.7127 167.188 47.554 166.721 47.554C166.217 47.554 165.797 47.7267 165.461 48.072C165.125 48.408 164.957 48.814 164.957 49.29V53.042H163.795V46.518H164.957V47.47C165.181 47.19 165.461 46.9613 165.797 46.784C166.133 46.6067 166.46 46.518 166.777 46.518C167.262 46.518 167.706 46.6253 168.107 46.84C168.508 47.0547 168.826 47.3673 169.059 47.778C169.302 48.1793 169.423 48.6553 169.423 49.206V53.042H168.261V49.29ZM174.13 52.076C174.494 52.076 174.825 51.9733 175.124 51.768C175.432 51.5627 175.67 51.2873 175.838 50.942C176.015 50.5967 176.104 50.2187 176.104 49.808C176.104 49.4067 176.015 49.0333 175.838 48.688C175.66 48.3333 175.422 48.0533 175.124 47.848C174.825 47.6427 174.494 47.54 174.13 47.54C173.551 47.54 173.075 47.7547 172.702 48.184C172.338 48.604 172.156 49.1453 172.156 49.808C172.156 50.48 172.338 51.026 172.702 51.446C173.066 51.866 173.542 52.076 174.13 52.076ZM177.28 52.622C177.28 53.2567 177.144 53.8307 176.874 54.344C176.612 54.8667 176.234 55.2773 175.74 55.576C175.254 55.8747 174.694 56.024 174.06 56.024C173.509 56.024 173 55.898 172.534 55.646C172.067 55.394 171.675 55.016 171.358 54.512L172.31 53.91C172.748 54.6193 173.332 54.974 174.06 54.974C174.685 54.974 175.18 54.75 175.544 54.302C175.917 53.8633 176.104 53.3127 176.104 52.65V51.95C175.87 52.2953 175.567 52.5753 175.194 52.79C174.82 53.0047 174.452 53.112 174.088 53.112C173.49 53.112 172.958 52.972 172.492 52.692C172.025 52.412 171.656 52.0247 171.386 51.53C171.124 51.026 170.994 50.4567 170.994 49.822C170.994 49.1873 171.124 48.618 171.386 48.114C171.656 47.61 172.025 47.218 172.492 46.938C172.958 46.6487 173.49 46.504 174.088 46.504C174.489 46.504 174.872 46.6067 175.236 46.812C175.6 47.008 175.889 47.2787 176.104 47.624V46.504H177.28V52.622Z" fill="black"/>
<path d="M126.09 78.154C125.119 78.154 124.251 77.9347 123.486 77.496C122.721 77.048 122.123 76.432 121.694 75.648C121.274 74.8547 121.064 73.954 121.064 72.946C121.064 71.938 121.274 71.042 121.694 70.258C122.123 69.4647 122.721 68.8487 123.486 68.41C124.251 67.962 125.119 67.738 126.09 67.738C126.771 67.738 127.415 67.8733 128.022 68.144C128.638 68.4147 129.179 68.788 129.646 69.264L128.862 69.964C128.517 69.5907 128.101 69.3013 127.616 69.096C127.131 68.8813 126.622 68.774 126.09 68.774C125.343 68.774 124.676 68.9513 124.088 69.306C123.509 69.6513 123.057 70.1413 122.73 70.776C122.413 71.4107 122.254 72.134 122.254 72.946C122.254 73.758 122.413 74.4813 122.73 75.116C123.057 75.7507 123.509 76.2453 124.088 76.6C124.676 76.9453 125.343 77.118 126.09 77.118C126.622 77.118 127.121 77.0153 127.588 76.81C128.064 76.5953 128.475 76.306 128.82 75.942L129.646 76.628C129.179 77.104 128.643 77.4773 128.036 77.748C127.429 78.0187 126.781 78.154 126.09 78.154ZM134.078 77.09C134.656 77.09 135.128 76.88 135.492 76.46C135.856 76.04 136.038 75.494 136.038 74.822C136.038 74.15 135.856 73.604 135.492 73.184C135.128 72.7547 134.656 72.54 134.078 72.54C133.499 72.54 133.028 72.75 132.664 73.17C132.309 73.59 132.132 74.1407 132.132 74.822C132.132 75.5033 132.309 76.054 132.664 76.474C133.028 76.8847 133.499 77.09 134.078 77.09ZM134.078 71.504C134.684 71.504 135.226 71.6487 135.702 71.938C136.178 72.218 136.546 72.61 136.808 73.114C137.078 73.618 137.214 74.1873 137.214 74.822C137.214 75.4567 137.078 76.026 136.808 76.53C136.546 77.0247 136.178 77.4167 135.702 77.706C135.226 77.986 134.684 78.126 134.078 78.126C133.48 78.126 132.944 77.986 132.468 77.706C132.001 77.4167 131.632 77.0247 131.362 76.53C131.1 76.026 130.97 75.4567 130.97 74.822C130.97 74.1873 131.1 73.618 131.362 73.114C131.632 72.61 132.001 72.218 132.468 71.938C132.944 71.6487 133.48 71.504 134.078 71.504ZM147.112 74.15C147.112 73.674 146.986 73.2913 146.734 73.002C146.482 72.7033 146.151 72.554 145.74 72.554C145.274 72.554 144.891 72.694 144.592 72.974C144.303 73.2447 144.158 73.5993 144.158 74.038V78.042H142.982V74.15C142.982 73.674 142.856 73.2913 142.604 73.002C142.362 72.7033 142.04 72.554 141.638 72.554C141.172 72.554 140.784 72.722 140.476 73.058C140.178 73.394 140.028 73.8 140.028 74.276V78.042H138.866V71.518H140.028V72.456C140.224 72.176 140.472 71.952 140.77 71.784C141.069 71.6067 141.372 71.518 141.68 71.518C142.082 71.518 142.464 71.63 142.828 71.854C143.202 72.078 143.482 72.3673 143.668 72.722C143.883 72.3673 144.186 72.078 144.578 71.854C144.97 71.63 145.367 71.518 145.768 71.518C146.254 71.518 146.688 71.6253 147.07 71.84C147.453 72.0547 147.752 72.358 147.966 72.75C148.181 73.1327 148.288 73.5713 148.288 74.066V78.042H147.112V74.15ZM158.35 74.15C158.35 73.674 158.224 73.2913 157.972 73.002C157.72 72.7033 157.389 72.554 156.978 72.554C156.512 72.554 156.129 72.694 155.83 72.974C155.541 73.2447 155.396 73.5993 155.396 74.038V78.042H154.22V74.15C154.22 73.674 154.094 73.2913 153.842 73.002C153.6 72.7033 153.278 72.554 152.876 72.554C152.41 72.554 152.022 72.722 151.714 73.058C151.416 73.394 151.266 73.8 151.266 74.276V78.042H150.104V71.518H151.266V72.456C151.462 72.176 151.71 71.952 152.008 71.784C152.307 71.6067 152.61 71.518 152.918 71.518C153.32 71.518 153.702 71.63 154.066 71.854C154.44 72.078 154.72 72.3673 154.906 72.722C155.121 72.3673 155.424 72.078 155.816 71.854C156.208 71.63 156.605 71.518 157.006 71.518C157.492 71.518 157.926 71.6253 158.308 71.84C158.691 72.0547 158.99 72.358 159.204 72.75C159.419 73.1327 159.526 73.5713 159.526 74.066V78.042H158.35V74.15ZM164.319 77.09C164.897 77.09 165.369 76.88 165.733 76.46C166.097 76.04 166.279 75.494 166.279 74.822C166.279 74.15 166.097 73.604 165.733 73.184C165.369 72.7547 164.897 72.54 164.319 72.54C163.74 72.54 163.269 72.75 162.905 73.17C162.55 73.59 162.373 74.1407 162.373 74.822C162.373 75.5033 162.55 76.054 162.905 76.474C163.269 76.8847 163.74 77.09 164.319 77.09ZM164.319 71.504C164.925 71.504 165.467 71.6487 165.943 71.938C166.419 72.218 166.787 72.61 167.049 73.114C167.319 73.618 167.455 74.1873 167.455 74.822C167.455 75.4567 167.319 76.026 167.049 76.53C166.787 77.0247 166.419 77.4167 165.943 77.706C165.467 77.986 164.925 78.126 164.319 78.126C163.721 78.126 163.185 77.986 162.709 77.706C162.242 77.4167 161.873 77.0247 161.603 76.53C161.341 76.026 161.211 75.4567 161.211 74.822C161.211 74.1873 161.341 73.618 161.603 73.114C161.873 72.61 162.242 72.218 162.709 71.938C163.185 71.6487 163.721 71.504 164.319 71.504ZM173.476 74.29C173.476 73.7673 173.336 73.3473 173.056 73.03C172.776 72.7127 172.402 72.554 171.936 72.554C171.432 72.554 171.012 72.7267 170.676 73.072C170.34 73.408 170.172 73.814 170.172 74.29V78.042H169.01V71.518H170.172V72.47C170.396 72.19 170.676 71.9613 171.012 71.784C171.348 71.6067 171.674 71.518 171.992 71.518C172.477 71.518 172.92 71.6253 173.322 71.84C173.723 72.0547 174.04 72.3673 174.274 72.778C174.516 73.1793 174.638 73.6553 174.638 74.206V78.042H173.476V74.29Z" fill="black"/>
<path d="M143.366 95.16V103.042H142.19V92.85H143.408L147.104 99.612L150.8 92.85H152.018V103.042H150.856V95.16L147.65 101.04H146.544L143.366 95.16ZM157.006 103.098C156.399 103.098 155.858 102.958 155.382 102.678C154.915 102.398 154.546 102.011 154.276 101.516C154.014 101.012 153.884 100.443 153.884 99.808C153.884 99.1733 154.014 98.6087 154.276 98.114C154.546 97.61 154.915 97.218 155.382 96.938C155.858 96.658 156.399 96.518 157.006 96.518C157.855 96.518 158.485 96.728 158.896 97.148C159.306 97.568 159.572 97.9507 159.694 98.296C159.88 98.7813 159.974 99.3133 159.974 99.892L159.96 100.312H155.06C155.144 100.825 155.368 101.25 155.732 101.586C156.096 101.913 156.52 102.076 157.006 102.076C157.836 102.076 158.457 101.754 158.868 101.11L159.792 101.586C159.605 101.997 159.269 102.351 158.784 102.65C158.308 102.949 157.715 103.098 157.006 103.098ZM158.826 99.304C158.676 98.128 158.07 97.54 157.006 97.54C156.511 97.54 156.082 97.708 155.718 98.044C155.363 98.3707 155.144 98.7953 155.06 99.318L158.826 99.304ZM169.917 99.15C169.917 98.674 169.791 98.2913 169.539 98.002C169.287 97.7033 168.956 97.554 168.545 97.554C168.078 97.554 167.696 97.694 167.397 97.974C167.108 98.2447 166.963 98.5993 166.963 99.038V103.042H165.787V99.15C165.787 98.674 165.661 98.2913 165.409 98.002C165.166 97.7033 164.844 97.554 164.443 97.554C163.976 97.554 163.589 97.722 163.281 98.058C162.982 98.394 162.833 98.8 162.833 99.276V103.042H161.671V96.518H162.833V97.456C163.029 97.176 163.276 96.952 163.575 96.784C163.874 96.6067 164.177 96.518 164.485 96.518C164.886 96.518 165.269 96.63 165.633 96.854C166.006 97.078 166.286 97.3673 166.473 97.722C166.688 97.3673 166.991 97.078 167.383 96.854C167.775 96.63 168.172 96.518 168.573 96.518C169.058 96.518 169.492 96.6253 169.875 96.84C170.258 97.0547 170.556 97.358 170.771 97.75C170.986 98.1327 171.093 98.5713 171.093 99.066V103.042H169.917V99.15ZM176.263 103.154C175.909 103.154 175.549 103.065 175.185 102.888C174.821 102.701 174.499 102.407 174.219 102.006V103.07H173.057V93.158H174.219V97.666C174.499 97.2647 174.821 96.9753 175.185 96.798C175.549 96.6207 175.913 96.532 176.277 96.532C176.875 96.532 177.411 96.672 177.887 96.952C178.363 97.232 178.732 97.624 178.993 98.128C179.264 98.632 179.399 99.2013 179.399 99.836C179.399 100.48 179.264 101.054 178.993 101.558C178.732 102.062 178.363 102.454 177.887 102.734C177.411 103.014 176.87 103.154 176.263 103.154ZM176.221 102.132C176.819 102.132 177.304 101.922 177.677 101.502C178.051 101.073 178.237 100.517 178.237 99.836C178.237 99.164 178.051 98.618 177.677 98.198C177.304 97.778 176.819 97.568 176.221 97.568C175.867 97.568 175.535 97.6707 175.227 97.876C174.919 98.0813 174.672 98.3567 174.485 98.702C174.308 99.0473 174.219 99.4253 174.219 99.836C174.219 100.256 174.308 100.643 174.485 100.998C174.672 101.343 174.919 101.619 175.227 101.824C175.535 102.029 175.867 102.132 176.221 102.132ZM183.843 103.098C183.236 103.098 182.695 102.958 182.219 102.678C181.752 102.398 181.383 102.011 181.113 101.516C180.851 101.012 180.721 100.443 180.721 99.808C180.721 99.1733 180.851 98.6087 181.113 98.114C181.383 97.61 181.752 97.218 182.219 96.938C182.695 96.658 183.236 96.518 183.843 96.518C184.692 96.518 185.322 96.728 185.733 97.148C186.143 97.568 186.409 97.9507 186.531 98.296C186.717 98.7813 186.811 99.3133 186.811 99.892L186.797 100.312H181.897C181.981 100.825 182.205 101.25 182.569 101.586C182.933 101.913 183.357 102.076 183.843 102.076C184.673 102.076 185.294 101.754 185.705 101.11L186.629 101.586C186.442 101.997 186.106 102.351 185.621 102.65C185.145 102.949 184.552 103.098 183.843 103.098ZM185.663 99.304C185.513 98.128 184.907 97.54 183.843 97.54C183.348 97.54 182.919 97.708 182.555 98.044C182.2 98.3707 181.981 98.7953 181.897 99.318L185.663 99.304ZM188.34 96.518H189.502V97.596C189.717 97.2413 190.025 96.9613 190.426 96.756C190.837 96.5413 191.257 96.4433 191.686 96.462V97.582C191.303 97.5727 190.944 97.666 190.608 97.862C190.272 98.058 190.001 98.324 189.796 98.66C189.6 98.9867 189.502 99.3413 189.502 99.724V103.042H188.34V96.518ZM193.566 100.956C193.734 101.32 193.977 101.6 194.294 101.796C194.611 101.983 194.91 102.076 195.19 102.076C195.591 102.076 195.913 101.997 196.156 101.838C196.408 101.679 196.534 101.46 196.534 101.18C196.534 101.012 196.469 100.872 196.338 100.76C196.207 100.648 196.058 100.559 195.89 100.494C195.722 100.419 195.451 100.317 195.078 100.186C194.63 100.027 194.266 99.8873 193.986 99.766C193.706 99.6353 193.459 99.444 193.244 99.192C193.029 98.94 192.922 98.6227 192.922 98.24C192.922 97.6987 193.141 97.2647 193.58 96.938C194.028 96.6113 194.583 96.448 195.246 96.448C195.526 96.448 195.825 96.504 196.142 96.616C196.469 96.728 196.763 96.9053 197.024 97.148C197.285 97.3907 197.463 97.694 197.556 98.058L196.534 98.408C196.441 98.0627 196.268 97.8247 196.016 97.694C195.764 97.554 195.507 97.484 195.246 97.484C194.901 97.484 194.621 97.554 194.406 97.694C194.191 97.8247 194.084 98.0067 194.084 98.24C194.084 98.408 194.145 98.548 194.266 98.66C194.397 98.772 194.541 98.8607 194.7 98.926C194.859 98.9913 195.139 99.0893 195.54 99.22C195.988 99.3787 196.352 99.5233 196.632 99.654C196.921 99.7847 197.169 99.976 197.374 100.228C197.589 100.48 197.696 100.797 197.696 101.18C197.696 101.759 197.458 102.225 196.982 102.58C196.515 102.925 195.918 103.098 195.19 103.098C194.677 103.098 194.187 102.958 193.72 102.678C193.253 102.398 192.889 102.011 192.628 101.516L193.566 100.956Z" fill="black"/>
<path d="M137.08 128.042H135.834L134.756 125.158H130.318L129.198 128.042H127.952L131.858 117.85H133.244L137.08 128.042ZM134.364 124.136L132.558 119.334L130.696 124.136H134.364ZM141.756 128.154C141.402 128.154 141.042 128.065 140.678 127.888C140.314 127.701 139.992 127.407 139.712 127.006V128.07H138.55V118.158H139.712V122.666C139.992 122.265 140.314 121.975 140.678 121.798C141.042 121.621 141.406 121.532 141.77 121.532C142.368 121.532 142.904 121.672 143.38 121.952C143.856 122.232 144.225 122.624 144.486 123.128C144.757 123.632 144.892 124.201 144.892 124.836C144.892 125.48 144.757 126.054 144.486 126.558C144.225 127.062 143.856 127.454 143.38 127.734C142.904 128.014 142.363 128.154 141.756 128.154ZM141.714 127.132C142.312 127.132 142.797 126.922 143.17 126.502C143.544 126.073 143.73 125.517 143.73 124.836C143.73 124.164 143.544 123.618 143.17 123.198C142.797 122.778 142.312 122.568 141.714 122.568C141.36 122.568 141.028 122.671 140.72 122.876C140.412 123.081 140.165 123.357 139.978 123.702C139.801 124.047 139.712 124.425 139.712 124.836C139.712 125.256 139.801 125.643 139.978 125.998C140.165 126.343 140.412 126.619 140.72 126.824C141.028 127.029 141.36 127.132 141.714 127.132ZM149.321 127.09C149.9 127.09 150.371 126.88 150.735 126.46C151.099 126.04 151.281 125.494 151.281 124.822C151.281 124.15 151.099 123.604 150.735 123.184C150.371 122.755 149.9 122.54 149.321 122.54C148.743 122.54 148.271 122.75 147.907 123.17C147.553 123.59 147.375 124.141 147.375 124.822C147.375 125.503 147.553 126.054 147.907 126.474C148.271 126.885 148.743 127.09 149.321 127.09ZM149.321 121.504C149.928 121.504 150.469 121.649 150.945 121.938C151.421 122.218 151.79 122.61 152.051 123.114C152.322 123.618 152.457 124.187 152.457 124.822C152.457 125.457 152.322 126.026 152.051 126.53C151.79 127.025 151.421 127.417 150.945 127.706C150.469 127.986 149.928 128.126 149.321 128.126C148.724 128.126 148.187 127.986 147.711 127.706C147.245 127.417 146.876 127.025 146.605 126.53C146.344 126.026 146.213 125.457 146.213 124.822C146.213 124.187 146.344 123.618 146.605 123.114C146.876 122.61 147.245 122.218 147.711 121.938C148.187 121.649 148.724 121.504 149.321 121.504ZM155.325 125.312C155.325 125.835 155.465 126.264 155.745 126.6C156.034 126.936 156.408 127.104 156.865 127.104C157.388 127.104 157.808 126.95 158.125 126.642C158.452 126.334 158.615 125.923 158.615 125.41V121.518H159.791V128.042H158.615V127.216C158.4 127.496 158.125 127.72 157.789 127.888C157.453 128.056 157.122 128.14 156.795 128.14C156.291 128.14 155.838 128.023 155.437 127.79C155.036 127.547 154.718 127.221 154.485 126.81C154.261 126.39 154.149 125.923 154.149 125.41V121.518H155.325V125.312ZM162.548 122.54H161.358V121.504H162.548V119.25H163.724V121.504H165.264V122.54H163.724V128.042H162.548V122.54ZM174.256 128.14C173.472 128.14 172.791 127.967 172.212 127.622C171.643 127.277 171.204 126.796 170.896 126.18C170.598 125.564 170.448 124.855 170.448 124.052V117.85H171.624V124.066C171.624 124.981 171.853 125.713 172.31 126.264C172.768 126.805 173.416 127.076 174.256 127.076C175.096 127.076 175.745 126.805 176.202 126.264C176.669 125.713 176.902 124.981 176.902 124.066V117.85H178.078V124.052C178.078 124.855 177.924 125.564 177.616 126.18C177.318 126.796 176.879 127.277 176.3 127.622C175.722 127.967 175.04 128.14 174.256 128.14ZM180.673 125.956C180.841 126.32 181.084 126.6 181.401 126.796C181.718 126.983 182.017 127.076 182.297 127.076C182.698 127.076 183.02 126.997 183.263 126.838C183.515 126.679 183.641 126.46 183.641 126.18C183.641 126.012 183.576 125.872 183.445 125.76C183.314 125.648 183.165 125.559 182.997 125.494C182.829 125.419 182.558 125.317 182.185 125.186C181.737 125.027 181.373 124.887 181.093 124.766C180.813 124.635 180.566 124.444 180.351 124.192C180.136 123.94 180.029 123.623 180.029 123.24C180.029 122.699 180.248 122.265 180.687 121.938C181.135 121.611 181.69 121.448 182.353 121.448C182.633 121.448 182.932 121.504 183.249 121.616C183.576 121.728 183.87 121.905 184.131 122.148C184.392 122.391 184.57 122.694 184.663 123.058L183.641 123.408C183.548 123.063 183.375 122.825 183.123 122.694C182.871 122.554 182.614 122.484 182.353 122.484C182.008 122.484 181.728 122.554 181.513 122.694C181.298 122.825 181.191 123.007 181.191 123.24C181.191 123.408 181.252 123.548 181.373 123.66C181.504 123.772 181.648 123.861 181.807 123.926C181.966 123.991 182.246 124.089 182.647 124.22C183.095 124.379 183.459 124.523 183.739 124.654C184.028 124.785 184.276 124.976 184.481 125.228C184.696 125.48 184.803 125.797 184.803 126.18C184.803 126.759 184.565 127.225 184.089 127.58C183.622 127.925 183.025 128.098 182.297 128.098C181.784 128.098 181.294 127.958 180.827 127.678C180.36 127.398 179.996 127.011 179.735 126.516L180.673 125.956Z" fill="black"/>
<path d="M282.08 228.042H280.834L279.756 225.158H275.318L274.198 228.042H272.952L276.858 217.85H278.244L282.08 228.042ZM279.364 224.136L277.558 219.334L275.696 224.136H279.364ZM284.712 225.312C284.712 225.835 284.852 226.264 285.132 226.6C285.422 226.936 285.795 227.104 286.252 227.104C286.775 227.104 287.195 226.95 287.512 226.642C287.839 226.334 288.002 225.923 288.002 225.41V221.518H289.178V228.042H288.002V227.216C287.788 227.496 287.512 227.72 287.176 227.888C286.84 228.056 286.509 228.14 286.182 228.14C285.678 228.14 285.226 228.023 284.824 227.79C284.423 227.547 284.106 227.221 283.872 226.81C283.648 226.39 283.536 225.923 283.536 225.41V221.518H284.712V225.312ZM291.935 222.54H290.745V221.504H291.935V219.25H293.111V221.504H294.651V222.54H293.111V228.042H291.935V222.54ZM300.525 224.416C300.525 223.856 300.39 223.403 300.119 223.058C299.849 222.703 299.494 222.526 299.055 222.526C298.747 222.526 298.458 222.624 298.187 222.82C297.917 223.007 297.702 223.263 297.543 223.59C297.385 223.907 297.305 224.253 297.305 224.626V228H296.129V218.158H297.305V222.47C297.511 222.171 297.767 221.933 298.075 221.756C298.383 221.579 298.71 221.49 299.055 221.49C299.559 221.49 300.012 221.611 300.413 221.854C300.815 222.097 301.127 222.433 301.351 222.862C301.585 223.291 301.701 223.777 301.701 224.318V228H300.525V224.416Z" fill="black"/>
<path d="M251.366 244.16V252.042H250.19V241.85H251.408L255.104 248.612L258.8 241.85H260.018V252.042H258.856V244.16L255.65 250.04H254.544L251.366 244.16ZM265.006 252.098C264.399 252.098 263.858 251.958 263.382 251.678C262.915 251.398 262.546 251.011 262.276 250.516C262.014 250.012 261.884 249.443 261.884 248.808C261.884 248.173 262.014 247.609 262.276 247.114C262.546 246.61 262.915 246.218 263.382 245.938C263.858 245.658 264.399 245.518 265.006 245.518C265.855 245.518 266.485 245.728 266.896 246.148C267.306 246.568 267.572 246.951 267.694 247.296C267.88 247.781 267.974 248.313 267.974 248.892L267.96 249.312H263.06C263.144 249.825 263.368 250.25 263.732 250.586C264.096 250.913 264.52 251.076 265.006 251.076C265.836 251.076 266.457 250.754 266.868 250.11L267.792 250.586C267.605 250.997 267.269 251.351 266.784 251.65C266.308 251.949 265.715 252.098 265.006 252.098ZM266.826 248.304C266.676 247.128 266.07 246.54 265.006 246.54C264.511 246.54 264.082 246.708 263.718 247.044C263.363 247.371 263.144 247.795 263.06 248.318L266.826 248.304ZM277.917 248.15C277.917 247.674 277.791 247.291 277.539 247.002C277.287 246.703 276.956 246.554 276.545 246.554C276.078 246.554 275.696 246.694 275.397 246.974C275.108 247.245 274.963 247.599 274.963 248.038V252.042H273.787V248.15C273.787 247.674 273.661 247.291 273.409 247.002C273.166 246.703 272.844 246.554 272.443 246.554C271.976 246.554 271.589 246.722 271.281 247.058C270.982 247.394 270.833 247.8 270.833 248.276V252.042H269.671V245.518H270.833V246.456C271.029 246.176 271.276 245.952 271.575 245.784C271.874 245.607 272.177 245.518 272.485 245.518C272.886 245.518 273.269 245.63 273.633 245.854C274.006 246.078 274.286 246.367 274.473 246.722C274.688 246.367 274.991 246.078 275.383 245.854C275.775 245.63 276.172 245.518 276.573 245.518C277.058 245.518 277.492 245.625 277.875 245.84C278.258 246.055 278.556 246.358 278.771 246.75C278.986 247.133 279.093 247.571 279.093 248.066V252.042H277.917V248.15ZM284.263 252.154C283.909 252.154 283.549 252.065 283.185 251.888C282.821 251.701 282.499 251.407 282.219 251.006V252.07H281.057V242.158H282.219V246.666C282.499 246.265 282.821 245.975 283.185 245.798C283.549 245.621 283.913 245.532 284.277 245.532C284.875 245.532 285.411 245.672 285.887 245.952C286.363 246.232 286.732 246.624 286.993 247.128C287.264 247.632 287.399 248.201 287.399 248.836C287.399 249.48 287.264 250.054 286.993 250.558C286.732 251.062 286.363 251.454 285.887 251.734C285.411 252.014 284.87 252.154 284.263 252.154ZM284.221 251.132C284.819 251.132 285.304 250.922 285.677 250.502C286.051 250.073 286.237 249.517 286.237 248.836C286.237 248.164 286.051 247.618 285.677 247.198C285.304 246.778 284.819 246.568 284.221 246.568C283.867 246.568 283.535 246.671 283.227 246.876C282.919 247.081 282.672 247.357 282.485 247.702C282.308 248.047 282.219 248.425 282.219 248.836C282.219 249.256 282.308 249.643 282.485 249.998C282.672 250.343 282.919 250.619 283.227 250.824C283.535 251.029 283.867 251.132 284.221 251.132ZM291.843 252.098C291.236 252.098 290.695 251.958 290.219 251.678C289.752 251.398 289.383 251.011 289.113 250.516C288.851 250.012 288.721 249.443 288.721 248.808C288.721 248.173 288.851 247.609 289.113 247.114C289.383 246.61 289.752 246.218 290.219 245.938C290.695 245.658 291.236 245.518 291.843 245.518C292.692 245.518 293.322 245.728 293.733 246.148C294.143 246.568 294.409 246.951 294.531 247.296C294.717 247.781 294.811 248.313 294.811 248.892L294.797 249.312H289.897C289.981 249.825 290.205 250.25 290.569 250.586C290.933 250.913 291.357 251.076 291.843 251.076C292.673 251.076 293.294 250.754 293.705 250.11L294.629 250.586C294.442 250.997 294.106 251.351 293.621 251.65C293.145 251.949 292.552 252.098 291.843 252.098ZM293.663 248.304C293.513 247.128 292.907 246.54 291.843 246.54C291.348 246.54 290.919 246.708 290.555 247.044C290.2 247.371 289.981 247.795 289.897 248.318L293.663 248.304ZM296.34 245.518H297.502V246.596C297.717 246.241 298.025 245.961 298.426 245.756C298.837 245.541 299.257 245.443 299.686 245.462V246.582C299.303 246.573 298.944 246.666 298.608 246.862C298.272 247.058 298.001 247.324 297.796 247.66C297.6 247.987 297.502 248.341 297.502 248.724V252.042H296.34V245.518ZM301.566 249.956C301.734 250.32 301.977 250.6 302.294 250.796C302.611 250.983 302.91 251.076 303.19 251.076C303.591 251.076 303.913 250.997 304.156 250.838C304.408 250.679 304.534 250.46 304.534 250.18C304.534 250.012 304.469 249.872 304.338 249.76C304.207 249.648 304.058 249.559 303.89 249.494C303.722 249.419 303.451 249.317 303.078 249.186C302.63 249.027 302.266 248.887 301.986 248.766C301.706 248.635 301.459 248.444 301.244 248.192C301.029 247.94 300.922 247.623 300.922 247.24C300.922 246.699 301.141 246.265 301.58 245.938C302.028 245.611 302.583 245.448 303.246 245.448C303.526 245.448 303.825 245.504 304.142 245.616C304.469 245.728 304.763 245.905 305.024 246.148C305.285 246.391 305.463 246.694 305.556 247.058L304.534 247.408C304.441 247.063 304.268 246.825 304.016 246.694C303.764 246.554 303.507 246.484 303.246 246.484C302.901 246.484 302.621 246.554 302.406 246.694C302.191 246.825 302.084 247.007 302.084 247.24C302.084 247.408 302.145 247.548 302.266 247.66C302.397 247.772 302.541 247.861 302.7 247.926C302.859 247.991 303.139 248.089 303.54 248.22C303.988 248.379 304.352 248.523 304.632 248.654C304.921 248.785 305.169 248.976 305.374 249.228C305.589 249.48 305.696 249.797 305.696 250.18C305.696 250.759 305.458 251.225 304.982 251.58C304.515 251.925 303.918 252.098 303.19 252.098C302.677 252.098 302.187 251.958 301.72 251.678C301.253 251.398 300.889 251.011 300.628 250.516L301.566 249.956Z" fill="black"/>
<path d="M245.08 276.042H243.834L242.756 273.158H238.318L237.198 276.042H235.952L239.858 265.85H241.244L245.08 276.042ZM242.364 272.136L240.558 267.334L238.696 272.136H242.364ZM249.756 276.154C249.402 276.154 249.042 276.065 248.678 275.888C248.314 275.701 247.992 275.407 247.712 275.006V276.07H246.55V266.158H247.712V270.666C247.992 270.265 248.314 269.975 248.678 269.798C249.042 269.621 249.406 269.532 249.77 269.532C250.368 269.532 250.904 269.672 251.38 269.952C251.856 270.232 252.225 270.624 252.486 271.128C252.757 271.632 252.892 272.201 252.892 272.836C252.892 273.48 252.757 274.054 252.486 274.558C252.225 275.062 251.856 275.454 251.38 275.734C250.904 276.014 250.363 276.154 249.756 276.154ZM249.714 275.132C250.312 275.132 250.797 274.922 251.17 274.502C251.544 274.073 251.73 273.517 251.73 272.836C251.73 272.164 251.544 271.618 251.17 271.198C250.797 270.778 250.312 270.568 249.714 270.568C249.36 270.568 249.028 270.671 248.72 270.876C248.412 271.081 248.165 271.357 247.978 271.702C247.801 272.047 247.712 272.425 247.712 272.836C247.712 273.256 247.801 273.643 247.978 273.998C248.165 274.343 248.412 274.619 248.72 274.824C249.028 275.029 249.36 275.132 249.714 275.132ZM257.321 275.09C257.9 275.09 258.371 274.88 258.735 274.46C259.099 274.04 259.281 273.494 259.281 272.822C259.281 272.15 259.099 271.604 258.735 271.184C258.371 270.755 257.9 270.54 257.321 270.54C256.743 270.54 256.271 270.75 255.907 271.17C255.553 271.59 255.375 272.141 255.375 272.822C255.375 273.503 255.553 274.054 255.907 274.474C256.271 274.885 256.743 275.09 257.321 275.09ZM257.321 269.504C257.928 269.504 258.469 269.649 258.945 269.938C259.421 270.218 259.79 270.61 260.051 271.114C260.322 271.618 260.457 272.187 260.457 272.822C260.457 273.457 260.322 274.026 260.051 274.53C259.79 275.025 259.421 275.417 258.945 275.706C258.469 275.986 257.928 276.126 257.321 276.126C256.724 276.126 256.187 275.986 255.711 275.706C255.245 275.417 254.876 275.025 254.605 274.53C254.344 274.026 254.213 273.457 254.213 272.822C254.213 272.187 254.344 271.618 254.605 271.114C254.876 270.61 255.245 270.218 255.711 269.938C256.187 269.649 256.724 269.504 257.321 269.504ZM263.325 273.312C263.325 273.835 263.465 274.264 263.745 274.6C264.034 274.936 264.408 275.104 264.865 275.104C265.388 275.104 265.808 274.95 266.125 274.642C266.452 274.334 266.615 273.923 266.615 273.41V269.518H267.791V276.042H266.615V275.216C266.4 275.496 266.125 275.72 265.789 275.888C265.453 276.056 265.122 276.14 264.795 276.14C264.291 276.14 263.838 276.023 263.437 275.79C263.036 275.547 262.718 275.221 262.485 274.81C262.261 274.39 262.149 273.923 262.149 273.41V269.518H263.325V273.312ZM270.548 270.54H269.358V269.504H270.548V267.25H271.724V269.504H273.264V270.54H271.724V276.042H270.548V270.54ZM282.256 276.14C281.472 276.14 280.791 275.967 280.212 275.622C279.643 275.277 279.204 274.796 278.896 274.18C278.598 273.564 278.448 272.855 278.448 272.052V265.85H279.624V272.066C279.624 272.981 279.853 273.713 280.31 274.264C280.768 274.805 281.416 275.076 282.256 275.076C283.096 275.076 283.745 274.805 284.202 274.264C284.669 273.713 284.902 272.981 284.902 272.066V265.85H286.078V272.052C286.078 272.855 285.924 273.564 285.616 274.18C285.318 274.796 284.879 275.277 284.3 275.622C283.722 275.967 283.04 276.14 282.256 276.14ZM288.673 273.956C288.841 274.32 289.084 274.6 289.401 274.796C289.718 274.983 290.017 275.076 290.297 275.076C290.698 275.076 291.02 274.997 291.263 274.838C291.515 274.679 291.641 274.46 291.641 274.18C291.641 274.012 291.576 273.872 291.445 273.76C291.314 273.648 291.165 273.559 290.997 273.494C290.829 273.419 290.558 273.317 290.185 273.186C289.737 273.027 289.373 272.887 289.093 272.766C288.813 272.635 288.566 272.444 288.351 272.192C288.136 271.94 288.029 271.623 288.029 271.24C288.029 270.699 288.248 270.265 288.687 269.938C289.135 269.611 289.69 269.448 290.353 269.448C290.633 269.448 290.932 269.504 291.249 269.616C291.576 269.728 291.87 269.905 292.131 270.148C292.392 270.391 292.57 270.694 292.663 271.058L291.641 271.408C291.548 271.063 291.375 270.825 291.123 270.694C290.871 270.554 290.614 270.484 290.353 270.484C290.008 270.484 289.728 270.554 289.513 270.694C289.298 270.825 289.191 271.007 289.191 271.24C289.191 271.408 289.252 271.548 289.373 271.66C289.504 271.772 289.648 271.861 289.807 271.926C289.966 271.991 290.246 272.089 290.647 272.22C291.095 272.379 291.459 272.523 291.739 272.654C292.028 272.785 292.276 272.976 292.481 273.228C292.696 273.48 292.803 273.797 292.803 274.18C292.803 274.759 292.565 275.225 292.089 275.58C291.622 275.925 291.025 276.098 290.297 276.098C289.784 276.098 289.294 275.958 288.827 275.678C288.36 275.398 287.996 275.011 287.735 274.516L288.673 273.956Z" fill="black"/>
<path d="M263.948 299.006C264.713 299.006 265.395 298.833 265.992 298.488C266.589 298.143 267.051 297.667 267.378 297.06C267.714 296.444 267.882 295.739 267.882 294.946C267.882 294.153 267.714 293.453 267.378 292.846C267.051 292.23 266.589 291.749 265.992 291.404C265.395 291.059 264.713 290.886 263.948 290.886H262.38V299.006H263.948ZM263.948 289.85C264.928 289.85 265.801 290.069 266.566 290.508C267.341 290.937 267.943 291.539 268.372 292.314C268.811 293.079 269.03 293.957 269.03 294.946C269.03 295.935 268.811 296.817 268.372 297.592C267.943 298.357 267.341 298.959 266.566 299.398C265.801 299.827 264.928 300.042 263.948 300.042H261.204V289.85H263.948ZM273.449 300.098C272.842 300.098 272.301 299.958 271.825 299.678C271.358 299.398 270.99 299.011 270.719 298.516C270.458 298.012 270.327 297.443 270.327 296.808C270.327 296.173 270.458 295.609 270.719 295.114C270.99 294.61 271.358 294.218 271.825 293.938C272.301 293.658 272.842 293.518 273.449 293.518C274.298 293.518 274.928 293.728 275.339 294.148C275.75 294.568 276.016 294.951 276.137 295.296C276.324 295.781 276.417 296.313 276.417 296.892L276.403 297.312H271.503C271.587 297.825 271.811 298.25 272.175 298.586C272.539 298.913 272.964 299.076 273.449 299.076C274.28 299.076 274.9 298.754 275.311 298.11L276.235 298.586C276.048 298.997 275.712 299.351 275.227 299.65C274.751 299.949 274.158 300.098 273.449 300.098ZM275.269 296.304C275.12 295.128 274.513 294.54 273.449 294.54C272.954 294.54 272.525 294.708 272.161 295.044C271.806 295.371 271.587 295.795 271.503 296.318L275.269 296.304ZM281.264 299.09C281.862 299.09 282.342 298.88 282.706 298.46C283.07 298.04 283.252 297.489 283.252 296.808C283.252 296.136 283.07 295.59 282.706 295.17C282.342 294.741 281.862 294.526 281.264 294.526C280.91 294.526 280.578 294.629 280.27 294.834C279.972 295.039 279.729 295.319 279.542 295.674C279.365 296.019 279.276 296.397 279.276 296.808C279.276 297.219 279.365 297.601 279.542 297.956C279.729 298.301 279.972 298.577 280.27 298.782C280.578 298.987 280.91 299.09 281.264 299.09ZM281.306 293.504C281.904 293.504 282.436 293.644 282.902 293.924C283.378 294.204 283.747 294.596 284.008 295.1C284.279 295.604 284.414 296.173 284.414 296.808C284.414 297.452 284.279 298.026 284.008 298.53C283.747 299.034 283.378 299.426 282.902 299.706C282.436 299.986 281.904 300.126 281.306 300.126C280.952 300.126 280.578 300.023 280.186 299.818C279.804 299.613 279.496 299.342 279.262 299.006V303.024H278.1V293.504H279.262V294.61C279.496 294.255 279.804 293.985 280.186 293.798C280.578 293.602 280.952 293.504 281.306 293.504ZM287.037 290.158V300.042H285.875V290.158H287.037ZM291.604 299.09C292.183 299.09 292.654 298.88 293.018 298.46C293.382 298.04 293.564 297.494 293.564 296.822C293.564 296.15 293.382 295.604 293.018 295.184C292.654 294.755 292.183 294.54 291.604 294.54C291.025 294.54 290.554 294.75 290.19 295.17C289.835 295.59 289.658 296.141 289.658 296.822C289.658 297.503 289.835 298.054 290.19 298.474C290.554 298.885 291.025 299.09 291.604 299.09ZM291.604 293.504C292.211 293.504 292.752 293.649 293.228 293.938C293.704 294.218 294.073 294.61 294.334 295.114C294.605 295.618 294.74 296.187 294.74 296.822C294.74 297.457 294.605 298.026 294.334 298.53C294.073 299.025 293.704 299.417 293.228 299.706C292.752 299.986 292.211 300.126 291.604 300.126C291.007 300.126 290.47 299.986 289.994 299.706C289.527 299.417 289.159 299.025 288.888 298.53C288.627 298.026 288.496 297.457 288.496 296.822C288.496 296.187 288.627 295.618 288.888 295.114C289.159 294.61 289.527 294.218 289.994 293.938C290.47 293.649 291.007 293.504 291.604 293.504ZM296.672 303.01L298.044 299.664L295.412 293.518H296.686L298.66 298.278L300.55 293.518H301.81L297.946 303.01H296.672Z" fill="black"/>
<path d="M252.114 201.298C252.394 201.849 252.749 202.292 253.178 202.628C253.607 202.955 254.079 203.118 254.592 203.118C255.273 203.127 255.815 202.973 256.216 202.656C256.617 202.339 256.818 201.905 256.818 201.354C256.818 200.981 256.715 200.668 256.51 200.416C256.305 200.164 256.048 199.963 255.74 199.814C255.441 199.665 255.026 199.492 254.494 199.296C253.859 199.053 253.351 198.829 252.968 198.624C252.585 198.419 252.259 198.129 251.988 197.756C251.717 197.373 251.582 196.888 251.582 196.3C251.582 195.507 251.876 194.881 252.464 194.424C253.052 193.967 253.808 193.738 254.732 193.738C255.46 193.738 256.09 193.929 256.622 194.312C257.163 194.695 257.555 195.255 257.798 195.992L256.748 196.356C256.599 195.861 256.342 195.474 255.978 195.194C255.614 194.914 255.194 194.774 254.718 194.774C254.13 194.774 253.654 194.909 253.29 195.18C252.926 195.451 252.744 195.824 252.744 196.3C252.744 196.673 252.847 196.986 253.052 197.238C253.257 197.481 253.509 197.681 253.808 197.84C254.116 197.989 254.531 198.162 255.054 198.358C255.679 198.591 256.188 198.815 256.58 199.03C256.972 199.235 257.303 199.529 257.574 199.912C257.845 200.285 257.98 200.771 257.98 201.368C257.98 201.919 257.845 202.404 257.574 202.824C257.303 203.244 256.916 203.571 256.412 203.804C255.908 204.037 255.32 204.154 254.648 204.154C253.183 204.154 252.007 203.379 251.12 201.83L252.114 201.298ZM262.738 204.098C262.131 204.098 261.59 203.958 261.114 203.678C260.647 203.398 260.279 203.011 260.008 202.516C259.747 202.012 259.616 201.443 259.616 200.808C259.616 200.173 259.747 199.609 260.008 199.114C260.279 198.61 260.647 198.218 261.114 197.938C261.59 197.658 262.131 197.518 262.738 197.518C263.587 197.518 264.217 197.728 264.628 198.148C265.039 198.568 265.305 198.951 265.426 199.296C265.613 199.781 265.706 200.313 265.706 200.892L265.692 201.312H260.792C260.876 201.825 261.1 202.25 261.464 202.586C261.828 202.913 262.253 203.076 262.738 203.076C263.569 203.076 264.189 202.754 264.6 202.11L265.524 202.586C265.337 202.997 265.001 203.351 264.516 203.65C264.04 203.949 263.447 204.098 262.738 204.098ZM264.558 200.304C264.409 199.128 263.802 198.54 262.738 198.54C262.243 198.54 261.814 198.708 261.45 199.044C261.095 199.371 260.876 199.795 260.792 200.318L264.558 200.304ZM267.802 198.54H266.612V197.504H267.802V195.25H268.978V197.504H270.518V198.54H268.978V204.042H267.802V198.54ZM272.136 198.54H270.946V197.504H272.136V195.25H273.312V197.504H274.852V198.54H273.312V204.042H272.136V198.54ZM277.478 197.504V204.042H276.316V197.504H277.478ZM276.904 194.27C277.11 194.27 277.278 194.335 277.408 194.466C277.539 194.597 277.604 194.765 277.604 194.97C277.604 195.175 277.539 195.348 277.408 195.488C277.278 195.619 277.11 195.684 276.904 195.684C276.699 195.684 276.526 195.619 276.386 195.488C276.256 195.348 276.19 195.175 276.19 194.97C276.19 194.765 276.256 194.597 276.386 194.466C276.526 194.335 276.699 194.27 276.904 194.27ZM284.034 200.29C284.034 199.767 283.894 199.347 283.614 199.03C283.334 198.713 282.961 198.554 282.494 198.554C281.99 198.554 281.57 198.727 281.234 199.072C280.898 199.408 280.73 199.814 280.73 200.29V204.042H279.568V197.518H280.73V198.47C280.954 198.19 281.234 197.961 281.57 197.784C281.906 197.607 282.233 197.518 282.55 197.518C283.036 197.518 283.479 197.625 283.88 197.84C284.282 198.055 284.599 198.367 284.832 198.778C285.075 199.179 285.196 199.655 285.196 200.206V204.042H284.034V200.29ZM289.903 203.076C290.267 203.076 290.598 202.973 290.897 202.768C291.205 202.563 291.443 202.287 291.611 201.942C291.788 201.597 291.877 201.219 291.877 200.808C291.877 200.407 291.788 200.033 291.611 199.688C291.433 199.333 291.195 199.053 290.897 198.848C290.598 198.643 290.267 198.54 289.903 198.54C289.324 198.54 288.848 198.755 288.475 199.184C288.111 199.604 287.929 200.145 287.929 200.808C287.929 201.48 288.111 202.026 288.475 202.446C288.839 202.866 289.315 203.076 289.903 203.076ZM293.053 203.622C293.053 204.257 292.917 204.831 292.647 205.344C292.385 205.867 292.007 206.277 291.513 206.576C291.027 206.875 290.467 207.024 289.833 207.024C289.282 207.024 288.773 206.898 288.307 206.646C287.84 206.394 287.448 206.016 287.131 205.512L288.083 204.91C288.521 205.619 289.105 205.974 289.833 205.974C290.458 205.974 290.953 205.75 291.317 205.302C291.69 204.863 291.877 204.313 291.877 203.65V202.95C291.643 203.295 291.34 203.575 290.967 203.79C290.593 204.005 290.225 204.112 289.861 204.112C289.263 204.112 288.731 203.972 288.265 203.692C287.798 203.412 287.429 203.025 287.159 202.53C286.897 202.026 286.767 201.457 286.767 200.822C286.767 200.187 286.897 199.618 287.159 199.114C287.429 198.61 287.798 198.218 288.265 197.938C288.731 197.649 289.263 197.504 289.861 197.504C290.262 197.504 290.645 197.607 291.009 197.812C291.373 198.008 291.662 198.279 291.877 198.624V197.504H293.053V203.622Z" fill="black"/>
<path d="M92.416 435.912C92.736 436.541 93.1413 437.048 93.632 437.432C94.1227 437.805 94.6613 437.992 95.248 437.992C96.0267 438.003 96.6453 437.827 97.104 437.464C97.5627 437.101 97.792 436.605 97.792 435.976C97.792 435.549 97.6747 435.192 97.44 434.904C97.2053 434.616 96.912 434.387 96.56 434.216C96.2187 434.045 95.744 433.848 95.136 433.624C94.4107 433.347 93.8293 433.091 93.392 432.856C92.9547 432.621 92.5813 432.291 92.272 431.864C91.9627 431.427 91.808 430.872 91.808 430.2C91.808 429.293 92.144 428.579 92.816 428.056C93.488 427.533 94.352 427.272 95.408 427.272C96.24 427.272 96.96 427.491 97.568 427.928C98.1867 428.365 98.6347 429.005 98.912 429.848L97.712 430.264C97.5413 429.699 97.248 429.256 96.832 428.936C96.416 428.616 95.936 428.456 95.392 428.456C94.72 428.456 94.176 428.611 93.76 428.92C93.344 429.229 93.136 429.656 93.136 430.2C93.136 430.627 93.2533 430.984 93.488 431.272C93.7227 431.549 94.0107 431.779 94.352 431.96C94.704 432.131 95.1787 432.328 95.776 432.552C96.4907 432.819 97.072 433.075 97.52 433.32C97.968 433.555 98.3467 433.891 98.656 434.328C98.9653 434.755 99.12 435.309 99.12 435.992C99.12 436.621 98.9653 437.176 98.656 437.656C98.3467 438.136 97.904 438.509 97.328 438.776C96.752 439.043 96.08 439.176 95.312 439.176C93.6373 439.176 92.2933 438.291 91.28 436.52L92.416 435.912ZM104.558 439.112C103.864 439.112 103.246 438.952 102.702 438.632C102.168 438.312 101.747 437.869 101.438 437.304C101.139 436.728 100.99 436.077 100.99 435.352C100.99 434.627 101.139 433.981 101.438 433.416C101.747 432.84 102.168 432.392 102.702 432.072C103.246 431.752 103.864 431.592 104.558 431.592C105.528 431.592 106.248 431.832 106.718 432.312C107.187 432.792 107.491 433.229 107.63 433.624C107.843 434.179 107.95 434.787 107.95 435.448L107.934 435.928H102.334C102.43 436.515 102.686 437 103.102 437.384C103.518 437.757 104.003 437.944 104.558 437.944C105.507 437.944 106.216 437.576 106.686 436.84L107.742 437.384C107.528 437.853 107.144 438.259 106.59 438.6C106.046 438.941 105.368 439.112 104.558 439.112ZM106.638 434.776C106.467 433.432 105.774 432.76 104.558 432.76C103.992 432.76 103.502 432.952 103.086 433.336C102.68 433.709 102.43 434.195 102.334 434.792L106.638 434.776ZM110.346 432.76H108.986V431.576H110.346V429H111.69V431.576H113.45V432.76H111.69V439.048H110.346V432.76ZM115.298 432.76H113.938V431.576H115.298V429H116.642V431.576H118.402V432.76H116.642V439.048H115.298V432.76ZM121.404 431.576V439.048H120.076V431.576H121.404ZM120.748 427.88C120.982 427.88 121.174 427.955 121.324 428.104C121.473 428.253 121.548 428.445 121.548 428.68C121.548 428.915 121.473 429.112 121.324 429.272C121.174 429.421 120.982 429.496 120.748 429.496C120.513 429.496 120.316 429.421 120.156 429.272C120.006 429.112 119.932 428.915 119.932 428.68C119.932 428.445 120.006 428.253 120.156 428.104C120.316 427.955 120.513 427.88 120.748 427.88ZM128.896 434.76C128.896 434.163 128.736 433.683 128.416 433.32C128.096 432.957 127.67 432.776 127.136 432.776C126.56 432.776 126.08 432.973 125.696 433.368C125.312 433.752 125.12 434.216 125.12 434.76V439.048H123.792V431.592H125.12V432.68C125.376 432.36 125.696 432.099 126.08 431.896C126.464 431.693 126.838 431.592 127.2 431.592C127.755 431.592 128.262 431.715 128.72 431.96C129.179 432.205 129.542 432.563 129.808 433.032C130.086 433.491 130.224 434.035 130.224 434.664V439.048H128.896V434.76ZM135.603 437.944C136.019 437.944 136.398 437.827 136.739 437.592C137.091 437.357 137.363 437.043 137.555 436.648C137.758 436.253 137.859 435.821 137.859 435.352C137.859 434.893 137.758 434.467 137.555 434.072C137.352 433.667 137.08 433.347 136.739 433.112C136.398 432.877 136.019 432.76 135.603 432.76C134.942 432.76 134.398 433.005 133.971 433.496C133.555 433.976 133.347 434.595 133.347 435.352C133.347 436.12 133.555 436.744 133.971 437.224C134.387 437.704 134.931 437.944 135.603 437.944ZM139.203 438.568C139.203 439.293 139.048 439.949 138.739 440.536C138.44 441.133 138.008 441.603 137.443 441.944C136.888 442.285 136.248 442.456 135.523 442.456C134.894 442.456 134.312 442.312 133.779 442.024C133.246 441.736 132.798 441.304 132.435 440.728L133.523 440.04C134.024 440.851 134.691 441.256 135.523 441.256C136.238 441.256 136.803 441 137.219 440.488C137.646 439.987 137.859 439.357 137.859 438.6V437.8C137.592 438.195 137.246 438.515 136.819 438.76C136.392 439.005 135.971 439.128 135.555 439.128C134.872 439.128 134.264 438.968 133.731 438.648C133.198 438.328 132.776 437.885 132.467 437.32C132.168 436.744 132.019 436.093 132.019 435.368C132.019 434.643 132.168 433.992 132.467 433.416C132.776 432.84 133.198 432.392 133.731 432.072C134.264 431.741 134.872 431.576 135.555 431.576C136.014 431.576 136.451 431.693 136.867 431.928C137.283 432.152 137.614 432.461 137.859 432.856V431.576H139.203V438.568Z" fill="black"/>
<line x1="173" y1="174.5" x2="319" y2="174.5" stroke="black"/>
<line x1="1" y1="375.5" x2="173" y2="375.5" stroke="black"/>
<path d="M32.744 281.16C31.848 281.16 31.0693 280.963 30.408 280.568C29.7573 280.173 29.256 279.624 28.904 278.92C28.5627 278.216 28.392 277.405 28.392 276.488V269.4H29.736V276.504C29.736 277.549 29.9973 278.387 30.52 279.016C31.0427 279.635 31.784 279.944 32.744 279.944C33.704 279.944 34.4453 279.635 34.968 279.016C35.5013 278.387 35.768 277.549 35.768 276.504V269.4H37.112V276.488C37.112 277.405 36.936 278.216 36.584 278.92C36.2427 279.624 35.7413 280.173 35.08 280.568C34.4187 280.963 33.64 281.16 32.744 281.16ZM40.0774 278.664C40.2694 279.08 40.5467 279.4 40.9094 279.624C41.272 279.837 41.6134 279.944 41.9334 279.944C42.392 279.944 42.76 279.853 43.0374 279.672C43.3254 279.491 43.4694 279.24 43.4694 278.92C43.4694 278.728 43.3947 278.568 43.2454 278.44C43.096 278.312 42.9254 278.211 42.7334 278.136C42.5414 278.051 42.232 277.933 41.8054 277.784C41.2934 277.603 40.8774 277.443 40.5574 277.304C40.2374 277.155 39.9547 276.936 39.7094 276.648C39.464 276.36 39.3414 275.997 39.3414 275.56C39.3414 274.941 39.592 274.445 40.0934 274.072C40.6054 273.699 41.24 273.512 41.9974 273.512C42.3174 273.512 42.6587 273.576 43.0214 273.704C43.3947 273.832 43.7307 274.035 44.0294 274.312C44.328 274.589 44.5307 274.936 44.6374 275.352L43.4694 275.752C43.3627 275.357 43.1654 275.085 42.8774 274.936C42.5894 274.776 42.296 274.696 41.9974 274.696C41.6027 274.696 41.2827 274.776 41.0374 274.936C40.792 275.085 40.6694 275.293 40.6694 275.56C40.6694 275.752 40.7387 275.912 40.8774 276.04C41.0267 276.168 41.192 276.269 41.3734 276.344C41.5547 276.419 41.8747 276.531 42.3334 276.68C42.8454 276.861 43.2614 277.027 43.5814 277.176C43.912 277.325 44.1947 277.544 44.4294 277.832C44.6747 278.12 44.7974 278.483 44.7974 278.92C44.7974 279.581 44.5254 280.115 43.9814 280.52C43.448 280.915 42.7654 281.112 41.9334 281.112C41.3467 281.112 40.7867 280.952 40.2534 280.632C39.72 280.312 39.304 279.869 39.0054 279.304L40.0774 278.664ZM50.0261 281.112C49.3328 281.112 48.7141 280.952 48.1701 280.632C47.6368 280.312 47.2155 279.869 46.9061 279.304C46.6075 278.728 46.4581 278.077 46.4581 277.352C46.4581 276.627 46.6075 275.981 46.9061 275.416C47.2155 274.84 47.6368 274.392 48.1701 274.072C48.7141 273.752 49.3328 273.592 50.0261 273.592C50.9968 273.592 51.7168 273.832 52.1861 274.312C52.6555 274.792 52.9595 275.229 53.0981 275.624C53.3115 276.179 53.4181 276.787 53.4181 277.448L53.4021 277.928H47.8021C47.8981 278.515 48.1541 279 48.5701 279.384C48.9861 279.757 49.4715 279.944 50.0261 279.944C50.9755 279.944 51.6848 279.576 52.1541 278.84L53.2101 279.384C52.9968 279.853 52.6128 280.259 52.0581 280.6C51.5141 280.941 50.8368 281.112 50.0261 281.112ZM52.1061 276.776C51.9355 275.432 51.2421 274.76 50.0261 274.76C49.4608 274.76 48.9701 274.952 48.5541 275.336C48.1488 275.709 47.8981 276.195 47.8021 276.792L52.1061 276.776ZM55.1661 273.592H56.4941V274.824C56.7395 274.419 57.0915 274.099 57.5501 273.864C58.0195 273.619 58.4995 273.507 58.9901 273.528V274.808C58.5528 274.797 58.1421 274.904 57.7581 275.128C57.3741 275.352 57.0648 275.656 56.8301 276.04C56.6061 276.413 56.4941 276.819 56.4941 277.256V281.048H55.1661V273.592Z" fill="black"/>
<path d="M53.52 310.048H52.096L50.864 306.752H45.792L44.512 310.048H43.088L47.552 298.4H49.136L53.52 310.048ZM50.416 305.584L48.352 300.096L46.224 305.584H50.416ZM56.5284 306.928C56.5284 307.525 56.6884 308.016 57.0084 308.4C57.339 308.784 57.7657 308.976 58.2884 308.976C58.8857 308.976 59.3657 308.8 59.7284 308.448C60.1017 308.096 60.2884 307.627 60.2884 307.04V302.592H61.6324V310.048H60.2884V309.104C60.043 309.424 59.7284 309.68 59.3444 309.872C58.9604 310.064 58.5817 310.16 58.2084 310.16C57.6324 310.16 57.115 310.027 56.6564 309.76C56.1977 309.483 55.835 309.109 55.5684 308.64C55.3124 308.16 55.1844 307.627 55.1844 307.04V302.592H56.5284V306.928ZM64.7831 303.76H63.4231V302.576H64.7831V300H66.1271V302.576H67.8871V303.76H66.1271V310.048H64.7831V303.76ZM74.6005 305.904C74.6005 305.264 74.4458 304.747 74.1365 304.352C73.8272 303.947 73.4218 303.744 72.9205 303.744C72.5685 303.744 72.2378 303.856 71.9285 304.08C71.6192 304.293 71.3738 304.587 71.1925 304.96C71.0112 305.323 70.9205 305.717 70.9205 306.144V310H69.5765V298.752H70.9205V303.68C71.1552 303.339 71.4485 303.067 71.8005 302.864C72.1525 302.661 72.5258 302.56 72.9205 302.56C73.4965 302.56 74.0138 302.699 74.4725 302.976C74.9312 303.253 75.2885 303.637 75.5445 304.128C75.8112 304.619 75.9445 305.173 75.9445 305.792V310H74.6005V305.904Z" fill="black"/>
<path d="M133.96 470.048H132.472L128.088 458.4H129.512L133.208 468.192L136.696 458.4H138.12L133.96 470.048ZM142.057 468.96C142.719 468.96 143.257 468.72 143.673 468.24C144.089 467.76 144.297 467.136 144.297 466.368C144.297 465.6 144.089 464.976 143.673 464.496C143.257 464.005 142.719 463.76 142.057 463.76C141.396 463.76 140.857 464 140.441 464.48C140.036 464.96 139.833 465.589 139.833 466.368C139.833 467.147 140.036 467.776 140.441 468.256C140.857 468.725 141.396 468.96 142.057 468.96ZM142.057 462.576C142.751 462.576 143.369 462.741 143.913 463.072C144.457 463.392 144.879 463.84 145.177 464.416C145.487 464.992 145.641 465.643 145.641 466.368C145.641 467.093 145.487 467.744 145.177 468.32C144.879 468.885 144.457 469.333 143.913 469.664C143.369 469.984 142.751 470.144 142.057 470.144C141.375 470.144 140.761 469.984 140.217 469.664C139.684 469.333 139.263 468.885 138.953 468.32C138.655 467.744 138.505 467.093 138.505 466.368C138.505 465.643 138.655 464.992 138.953 464.416C139.263 463.84 139.684 463.392 140.217 463.072C140.761 462.741 141.375 462.576 142.057 462.576ZM147.986 463.76H146.626V462.576H147.986V460H149.33V462.576H151.09V463.76H149.33V470.048H147.986V463.76ZM154.092 462.576V470.048H152.764V462.576H154.092ZM153.436 458.88C153.67 458.88 153.862 458.955 154.012 459.104C154.161 459.253 154.236 459.445 154.236 459.68C154.236 459.915 154.161 460.112 154.012 460.272C153.862 460.421 153.67 460.496 153.436 460.496C153.201 460.496 153.004 460.421 152.844 460.272C152.694 460.112 152.62 459.915 152.62 459.68C152.62 459.445 152.694 459.253 152.844 459.104C153.004 458.955 153.201 458.88 153.436 458.88ZM161.584 465.76C161.584 465.163 161.424 464.683 161.104 464.32C160.784 463.957 160.357 463.776 159.824 463.776C159.248 463.776 158.768 463.973 158.384 464.368C158 464.752 157.808 465.216 157.808 465.76V470.048H156.48V462.592H157.808V463.68C158.064 463.36 158.384 463.099 158.768 462.896C159.152 462.693 159.525 462.592 159.888 462.592C160.443 462.592 160.949 462.715 161.408 462.96C161.867 463.205 162.229 463.563 162.496 464.032C162.773 464.491 162.912 465.035 162.912 465.664V470.048H161.584V465.76ZM168.291 468.944C168.707 468.944 169.086 468.827 169.427 468.592C169.779 468.357 170.051 468.043 170.243 467.648C170.446 467.253 170.547 466.821 170.547 466.352C170.547 465.893 170.446 465.467 170.243 465.072C170.04 464.667 169.768 464.347 169.427 464.112C169.086 463.877 168.707 463.76 168.291 463.76C167.63 463.76 167.086 464.005 166.659 464.496C166.243 464.976 166.035 465.595 166.035 466.352C166.035 467.12 166.243 467.744 166.659 468.224C167.075 468.704 167.619 468.944 168.291 468.944ZM171.891 469.568C171.891 470.293 171.736 470.949 171.427 471.536C171.128 472.133 170.696 472.603 170.131 472.944C169.576 473.285 168.936 473.456 168.211 473.456C167.582 473.456 167 473.312 166.467 473.024C165.934 472.736 165.486 472.304 165.123 471.728L166.211 471.04C166.712 471.851 167.379 472.256 168.211 472.256C168.926 472.256 169.491 472 169.907 471.488C170.334 470.987 170.547 470.357 170.547 469.6V468.8C170.28 469.195 169.934 469.515 169.507 469.76C169.08 470.005 168.659 470.128 168.243 470.128C167.56 470.128 166.952 469.968 166.419 469.648C165.886 469.328 165.464 468.885 165.155 468.32C164.856 467.744 164.707 467.093 164.707 466.368C164.707 465.643 164.856 464.992 165.155 464.416C165.464 463.84 165.886 463.392 166.419 463.072C166.952 462.741 167.56 462.576 168.243 462.576C168.702 462.576 169.139 462.693 169.555 462.928C169.971 463.152 170.302 463.461 170.547 463.856V462.576H171.891V469.568Z" fill="black"/>
<path d="M123.512 410.864C124.387 410.864 125.165 410.667 125.848 410.272C126.531 409.877 127.059 409.333 127.432 408.64C127.816 407.936 128.008 407.131 128.008 406.224C128.008 405.317 127.816 404.517 127.432 403.824C127.059 403.12 126.531 402.571 125.848 402.176C125.165 401.781 124.387 401.584 123.512 401.584H121.72V410.864H123.512ZM123.512 400.4C124.632 400.4 125.629 400.651 126.504 401.152C127.389 401.643 128.077 402.331 128.568 403.216C129.069 404.091 129.32 405.093 129.32 406.224C129.32 407.355 129.069 408.363 128.568 409.248C128.077 410.123 127.389 410.811 126.504 411.312C125.629 411.803 124.632 412.048 123.512 412.048H120.376V400.4H123.512ZM134.37 412.112C133.677 412.112 133.058 411.952 132.514 411.632C131.981 411.312 131.56 410.869 131.25 410.304C130.952 409.728 130.802 409.077 130.802 408.352C130.802 407.627 130.952 406.981 131.25 406.416C131.56 405.84 131.981 405.392 132.514 405.072C133.058 404.752 133.677 404.592 134.37 404.592C135.341 404.592 136.061 404.832 136.53 405.312C137 405.792 137.304 406.229 137.442 406.624C137.656 407.179 137.762 407.787 137.762 408.448L137.746 408.928H132.146C132.242 409.515 132.498 410 132.914 410.384C133.33 410.757 133.816 410.944 134.37 410.944C135.32 410.944 136.029 410.576 136.498 409.84L137.554 410.384C137.341 410.853 136.957 411.259 136.402 411.6C135.858 411.941 135.181 412.112 134.37 412.112ZM136.45 407.776C136.28 406.432 135.586 405.76 134.37 405.76C133.805 405.76 133.314 405.952 132.898 406.336C132.493 406.709 132.242 407.195 132.146 407.792L136.45 407.776ZM143.302 410.96C143.985 410.96 144.534 410.72 144.95 410.24C145.366 409.76 145.574 409.131 145.574 408.352C145.574 407.584 145.366 406.96 144.95 406.48C144.534 405.989 143.985 405.744 143.302 405.744C142.897 405.744 142.518 405.861 142.166 406.096C141.825 406.331 141.548 406.651 141.334 407.056C141.132 407.451 141.03 407.883 141.03 408.352C141.03 408.821 141.132 409.259 141.334 409.664C141.548 410.059 141.825 410.373 142.166 410.608C142.518 410.843 142.897 410.96 143.302 410.96ZM143.35 404.576C144.033 404.576 144.641 404.736 145.174 405.056C145.718 405.376 146.14 405.824 146.438 406.4C146.748 406.976 146.902 407.627 146.902 408.352C146.902 409.088 146.748 409.744 146.438 410.32C146.14 410.896 145.718 411.344 145.174 411.664C144.641 411.984 144.033 412.144 143.35 412.144C142.945 412.144 142.518 412.027 142.07 411.792C141.633 411.557 141.281 411.248 141.014 410.864V415.456H139.686V404.576H141.014V405.84C141.281 405.435 141.633 405.125 142.07 404.912C142.518 404.688 142.945 404.576 143.35 404.576ZM149.899 400.752V412.048H148.571V400.752H149.899ZM155.119 410.96C155.78 410.96 156.319 410.72 156.735 410.24C157.151 409.76 157.359 409.136 157.359 408.368C157.359 407.6 157.151 406.976 156.735 406.496C156.319 406.005 155.78 405.76 155.119 405.76C154.457 405.76 153.919 406 153.503 406.48C153.097 406.96 152.895 407.589 152.895 408.368C152.895 409.147 153.097 409.776 153.503 410.256C153.919 410.725 154.457 410.96 155.119 410.96ZM155.119 404.576C155.812 404.576 156.431 404.741 156.975 405.072C157.519 405.392 157.94 405.84 158.239 406.416C158.548 406.992 158.703 407.643 158.703 408.368C158.703 409.093 158.548 409.744 158.239 410.32C157.94 410.885 157.519 411.333 156.975 411.664C156.431 411.984 155.812 412.144 155.119 412.144C154.436 412.144 153.823 411.984 153.279 411.664C152.745 411.333 152.324 410.885 152.015 410.32C151.716 409.744 151.567 409.093 151.567 408.368C151.567 407.643 151.716 406.992 152.015 406.416C152.324 405.84 152.745 405.392 153.279 405.072C153.823 404.741 154.436 404.576 155.119 404.576ZM160.911 415.44L162.479 411.616L159.471 404.592H160.927L163.183 410.032L165.343 404.592H166.783L162.367 415.44H160.911Z" fill="black"/>
</svg>
