<svg width="280" height="141" viewBox="0 0 280 141" fill="none" xmlns="http://www.w3.org/2000/svg">
<g filter="url(#filter0_d_131_68)">
<ellipse cx="119.5" cy="85" rx="92.5" ry="48" stroke="#F9FAFB" stroke-width="3" shape-rendering="crispEdges"/>
</g>
<path d="M207 78.5C207 90.5019 197.694 101.85 181.564 110.317C165.527 118.734 143.234 124 118.5 124C93.7662 124 71.4731 118.734 55.4363 110.317C39.3058 101.85 30 90.5019 30 78.5C30 66.4981 39.3058 55.1496 55.4363 46.6833C71.4731 38.2662 93.7662 33 118.5 33C143.234 33 165.527 38.2662 181.564 46.6833C197.694 55.1496 207 66.4981 207 78.5Z" stroke="url(#paint0_linear_131_68)" stroke-width="4"/>
<path d="M45.5 0L57.7891 33.2109L91 45.5L57.7891 57.7891L45.5 91L33.2109 57.7891L0 45.5L33.2109 33.2109L45.5 0Z" fill="#FFEFB1"/>
<ellipse cx="206" cy="65.5" rx="6" ry="6.5" fill="#F9FAFB"/>
<rect x="166" y="10" width="6" height="6" fill="#E3E8F5"/>
<rect x="166" y="75" width="6" height="7" fill="#E3E8F5"/>
<rect x="274" y="75" width="6" height="7" fill="#E3E8F5"/>
<rect x="274" y="10" width="6" height="6" fill="#E3E8F5"/>
<rect x="170.5" y="14.5" width="105" height="62" fill="#F9FAFB" fill-opacity="0.8" stroke="#E3E8F5" stroke-width="3"/>
<defs>
<filter id="filter0_d_131_68" x="5" y="29" width="208.5" height="112" filterUnits="userSpaceOnUse" color-interpolation-filters="sRGB">
<feFlood flood-opacity="0" result="BackgroundImageFix"/>
<feColorMatrix in="SourceAlpha" type="matrix" values="0 0 0 0 0 0 0 0 0 0 0 0 0 0 0 0 0 0 127 0" result="hardAlpha"/>
<feOffset dx="-14"/>
<feGaussianBlur stdDeviation="3.25"/>
<feComposite in2="hardAlpha" operator="out"/>
<feColorMatrix type="matrix" values="0 0 0 0 0 0 0 0 0 0 0 0 0 0 0 0 0 0 0.11 0"/>
<feBlend mode="normal" in2="BackgroundImageFix" result="effect1_dropShadow_131_68"/>
<feBlend mode="normal" in="SourceGraphic" in2="effect1_dropShadow_131_68" result="shape"/>
</filter>
<linearGradient id="paint0_linear_131_68" x1="42.1006" y1="39.9865" x2="193.711" y2="117.087" gradientUnits="userSpaceOnUse">
<stop stop-color="#1B7BE8"/>
<stop offset="1" stop-color="#E3E8F5"/>
</linearGradient>
</defs>
</svg>
