<svg width="53" height="40" viewBox="0 0 53 40" fill="none" xmlns="http://www.w3.org/2000/svg">
<path d="M6.09 15.224C5.10067 15.224 4.21867 15 3.444 14.552C2.67867 14.104 2.07667 13.4787 1.638 12.676C1.20867 11.8733 0.994 10.9633 0.994 9.946C0.994 8.91933 1.20867 8.00933 1.638 7.216C2.07667 6.41333 2.67867 5.788 3.444 5.34C4.21867 4.892 5.10067 4.668 6.09 4.668C6.78067 4.668 7.434 4.80333 8.05 5.074C8.666 5.34467 9.212 5.72267 9.688 6.208L8.708 7.174C8.39067 6.80067 7.99867 6.50667 7.532 6.292C7.07467 6.07733 6.58933 5.97 6.076 5.97C5.36667 5.97 4.74133 6.138 4.2 6.474C3.65867 6.80067 3.23867 7.26733 2.94 7.874C2.64133 8.47133 2.492 9.162 2.492 9.946C2.492 10.73 2.64133 11.4253 2.94 12.032C3.23867 12.6293 3.65867 13.096 4.2 13.432C4.74133 13.7587 5.36667 13.922 6.076 13.922C6.59867 13.922 7.07933 13.8147 7.518 13.6C7.95667 13.3853 8.33467 13.1007 8.652 12.746L9.688 13.684C8.66133 14.72 7.462 15.2333 6.09 15.224ZM18.048 6.082H12.854V9.148H17.32V10.436H12.854V13.81H18.048V15.112H11.37V4.78H18.048V6.082ZM24.7808 13.922C25.4994 13.922 26.1341 13.7587 26.6848 13.432C27.2448 13.096 27.6741 12.6293 27.9728 12.032C28.2808 11.4253 28.4348 10.73 28.4348 9.946C28.4348 9.162 28.2808 8.47133 27.9728 7.874C27.6741 7.26733 27.2448 6.80067 26.6848 6.474C26.1341 6.138 25.4994 5.97 24.7808 5.97C24.0621 5.97 23.4274 6.138 22.8768 6.474C22.3261 6.80067 21.8968 7.26733 21.5888 7.874C21.2901 8.47133 21.1408 9.162 21.1408 9.946C21.1408 10.73 21.2901 11.4253 21.5888 12.032C21.8968 12.6293 22.3261 13.096 22.8768 13.432C23.4274 13.7587 24.0621 13.922 24.7808 13.922ZM24.7808 4.668C25.7794 4.668 26.6661 4.892 27.4408 5.34C28.2248 5.788 28.8361 6.41333 29.2748 7.216C29.7134 8.01867 29.9328 8.92867 29.9328 9.946C29.9328 10.9633 29.7134 11.8733 29.2748 12.676C28.8361 13.4787 28.2248 14.104 27.4408 14.552C26.6661 15 25.7794 15.224 24.7808 15.224C23.7914 15.224 22.9048 15 22.1208 14.552C21.3461 14.104 20.7394 13.4787 20.3008 12.676C19.8621 11.8733 19.6428 10.9633 19.6428 9.946C19.6428 8.92867 19.8621 8.01867 20.3008 7.216C20.7394 6.41333 21.3461 5.788 22.1208 5.34C22.9048 4.892 23.7914 4.668 24.7808 4.668ZM32.4548 12.172C32.7535 12.7507 33.1082 13.1893 33.5188 13.488C33.9388 13.7867 34.3822 13.936 34.8488 13.936C35.4928 13.936 35.9922 13.7913 36.3468 13.502C36.7015 13.2033 36.8788 12.8067 36.8788 12.312C36.8788 11.9853 36.7808 11.71 36.5848 11.486C36.3982 11.262 36.1602 11.0847 35.8708 10.954C35.5908 10.814 35.1988 10.6507 34.6948 10.464C34.0508 10.2307 33.5282 10.0067 33.1268 9.792C32.7255 9.57733 32.3848 9.274 32.1048 8.882C31.8248 8.49 31.6848 7.986 31.6848 7.37C31.6848 6.81933 31.8248 6.33867 32.1048 5.928C32.3848 5.51733 32.7722 5.20467 33.2668 4.99C33.7615 4.77533 34.3262 4.668 34.9608 4.668C35.6795 4.668 36.3235 4.86867 36.8928 5.27C37.4715 5.662 37.9008 6.25 38.1808 7.034L36.8508 7.51C36.6735 6.99667 36.4215 6.614 36.0948 6.362C35.7682 6.10067 35.3995 5.96533 34.9888 5.956C34.4382 5.956 33.9948 6.08667 33.6588 6.348C33.3322 6.6 33.1688 6.94067 33.1688 7.37C33.1688 7.69667 33.2622 7.972 33.4488 8.196C33.6448 8.42 33.8875 8.60667 34.1768 8.756C34.4755 8.896 34.8722 9.05933 35.3668 9.246C36.0108 9.498 36.5288 9.73133 36.9208 9.946C37.3128 10.1607 37.6488 10.464 37.9288 10.856C38.2088 11.2387 38.3488 11.7287 38.3488 12.326C38.3488 12.8953 38.2088 13.3993 37.9288 13.838C37.6488 14.2767 37.2428 14.6173 36.7108 14.86C36.1882 15.1027 35.5722 15.224 34.8628 15.224C34.1068 15.224 33.4208 15.0233 32.8048 14.622C32.1888 14.2113 31.6615 13.6233 31.2228 12.858L32.4548 12.172ZM10.402 35.112H8.82L7.784 32.298H3.542L2.464 35.112H0.882L4.788 24.78H6.566L10.402 35.112ZM7.294 31.01L5.684 26.656L4.018 31.01H7.294ZM20.0826 35.112H18.6966L16.2746 27.342L13.9926 35.112H12.5926L9.44256 24.78H10.9966L13.2926 32.452L15.4766 24.794H17.0586L19.2986 32.452L21.3986 24.78H22.9526L20.0826 35.112ZM32.0849 35.112H30.5029L29.4669 32.298H25.2249L24.1469 35.112H22.5649L26.4709 24.78H28.2489L32.0849 35.112ZM28.9769 31.01L27.3669 26.656L25.7009 31.01H28.9769ZM37.5468 29.932C38.1161 29.932 38.5735 29.7593 38.9188 29.414C39.2735 29.0593 39.4508 28.588 39.4508 28C39.4508 27.412 39.2735 26.9453 38.9188 26.6C38.5735 26.2547 38.1161 26.082 37.5468 26.082H35.2928V29.932H37.5468ZM39.6328 35.112L37.0148 31.234H35.2928V35.112H33.8088V24.78H37.7288C38.3541 24.78 38.9095 24.9153 39.3948 25.186C39.8801 25.4567 40.2581 25.8393 40.5288 26.334C40.7995 26.8193 40.9348 27.3793 40.9348 28.014C40.9348 28.6953 40.7435 29.302 40.3608 29.834C39.9781 30.3567 39.4135 30.7533 38.6668 31.024L41.4248 35.112H39.6328ZM46.3738 33.81C47.1018 33.81 47.7458 33.6513 48.3058 33.334C48.8658 33.0073 49.2998 32.5547 49.6078 31.976C49.9158 31.388 50.0698 30.7113 50.0698 29.946C50.0698 29.1807 49.9158 28.5087 49.6078 27.93C49.2998 27.342 48.8658 26.8893 48.3058 26.572C47.7458 26.2453 47.1018 26.082 46.3738 26.082L44.9038 26.096V33.796L46.3738 33.81ZM46.3878 24.78C47.3865 24.78 48.2731 24.9993 49.0478 25.438C49.8318 25.8767 50.4431 26.488 50.8818 27.272C51.3205 28.056 51.5398 28.9473 51.5398 29.946C51.5398 30.9447 51.3205 31.836 50.8818 32.62C50.4431 33.404 49.8318 34.0153 49.0478 34.454C48.2731 34.8927 47.3865 35.112 46.3878 35.112H43.4198V24.78H46.3878Z" fill="#191F28"/>
</svg>
