<svg width="268" height="189" viewBox="0 0 268 189" fill="none" xmlns="http://www.w3.org/2000/svg">
<rect x="51.1787" width="9.45411" height="9.45411" fill="#E3E8F5"/>
<rect x="51.1787" y="85.4648" width="9.45411" height="9.45411" fill="#E3E8F5"/>
<rect x="176.729" width="9.45411" height="9.45411" fill="#E3E8F5"/>
<rect x="57.5" y="6.21387" width="122" height="83" stroke="#EAF4FF" stroke-width="3"/>
<path d="M199.5 25.7139L214.106 49.0903L239.763 38.7007L237.738 66.135L264.647 72.7007L246.765 93.7139L264.647 114.727L237.738 121.293L239.763 148.727L214.106 138.337L199.5 161.714L184.894 138.337L159.237 148.727L161.262 121.293L134.353 114.727L152.235 93.7139L134.353 72.7007L161.262 66.135L159.237 38.7007L184.894 49.0903L199.5 25.7139Z" fill="#5DA9FF"/>
<path d="M43.5 102.714L55.2489 134.1L87 145.714L55.2489 157.328L43.5 188.714L31.7511 157.328L0 145.714L31.7511 134.1L43.5 102.714Z" fill="#1B7BE8"/>
</svg>
