<svg width="357" height="437" viewBox="0 0 357 437" fill="none" xmlns="http://www.w3.org/2000/svg">
<rect x="179.5" y="268.5" width="139" height="99" stroke="black"/>
<rect x="146.5" y="106.5" width="107" height="137" stroke="black"/>
<rect x="50" y="43" width="140" height="86" fill="#E3E8F5" stroke="#191F28" stroke-width="2"/>
<path d="M76 49C76 62.7892 64.6013 74 50.5 74C36.3987 74 25 62.7892 25 49C25 35.2108 36.3987 24 50.5 24C64.6013 24 76 35.2108 76 49Z" fill="white" stroke="#191F28" stroke-width="2"/>
<g filter="url(#filter0_f_165_199)">
<ellipse cx="49" cy="50" rx="9" ry="10" fill="#1B7BE8"/>
</g>
<rect x="74" y="351" width="141" height="85" fill="#F2F9F9" stroke="#191F28" stroke-width="2"/>
<rect x="217" y="196" width="139" height="87" fill="#F2F4F6" stroke="#191F28" stroke-width="2"/>
<circle cx="75" cy="356" r="25" fill="white" stroke="#191F28" stroke-width="2"/>
<g filter="url(#filter1_f_165_199)">
<ellipse cx="73.5" cy="357.5" rx="9.5" ry="10.5" fill="#DF4646"/>
</g>
<circle cx="217" cy="203" r="25" fill="white" stroke="#191F28" stroke-width="2"/>
<g filter="url(#filter2_f_165_199)">
<path d="M224 203C224 208.523 219.971 213 215 213C210.029 213 206 208.523 206 203C206 197.477 210.029 193 215 193C219.971 193 224 197.477 224 203Z" fill="#FFEFB1"/>
</g>
<path d="M45.2921 55.048L43.5961 55.032V45.224L41.5481 46.36L40.8441 44.936L43.6121 43.416H45.2921V55.048ZM51.9956 42.648C52.6996 42.648 53.3342 42.776 53.8996 43.032C54.4649 43.288 54.9022 43.6453 55.2116 44.104C55.5316 44.552 55.6916 45.0693 55.6916 45.656C55.6916 46.232 55.5316 46.7493 55.2116 47.208C54.9022 47.656 54.4649 48.008 53.8996 48.264C53.3342 48.52 52.6996 48.648 51.9956 48.648C51.2916 48.648 50.6569 48.52 50.0916 48.264C49.5369 48.008 49.0996 47.656 48.7796 47.208C48.4596 46.7493 48.2996 46.232 48.2996 45.656C48.2996 45.0693 48.4596 44.552 48.7796 44.104C49.0996 43.6453 49.5369 43.288 50.0916 43.032C50.6569 42.776 51.2916 42.648 51.9956 42.648ZM51.9956 44.088C51.4089 44.088 50.9289 44.232 50.5556 44.52C50.1822 44.7973 49.9956 45.176 49.9956 45.656C49.9956 46.1253 50.1822 46.504 50.5556 46.792C50.9289 47.0693 51.4089 47.208 51.9956 47.208C52.5929 47.208 53.0782 47.0693 53.4516 46.792C53.8249 46.504 54.0116 46.1253 54.0116 45.656C54.0116 45.176 53.8249 44.7973 53.4516 44.52C53.0782 44.232 52.5929 44.088 51.9956 44.088ZM59.1956 42.04V56.296H57.4356V42.04H59.1956ZM47.3876 49.624C49.1902 49.624 50.8276 49.5973 52.2996 49.544C53.7822 49.48 55.2009 49.3413 56.5556 49.128L56.6676 50.424C55.5902 50.6373 54.3476 50.7973 52.9396 50.904V55.848H51.1796V51.016C50.0276 51.0587 48.8329 51.08 47.5956 51.08L47.3876 49.624Z" fill="black"/>
<path d="M206.43 207.56C206.686 207.315 206.953 207.069 207.23 206.824C207.508 206.568 207.785 206.317 208.062 206.072C208.926 205.304 209.614 204.669 210.126 204.168C210.638 203.656 211.07 203.133 211.422 202.6C211.774 202.067 211.95 201.56 211.95 201.08C211.95 200.419 211.758 199.88 211.374 199.464C211.001 199.048 210.521 198.84 209.934 198.84C209.476 198.84 209.038 198.989 208.622 199.288C208.217 199.587 207.908 199.971 207.694 200.44L206.206 199.784C206.526 199.048 207.033 198.451 207.726 197.992C208.43 197.523 209.166 197.288 209.934 197.288C210.66 197.288 211.3 197.448 211.854 197.768C212.42 198.088 212.857 198.536 213.166 199.112C213.486 199.688 213.646 200.344 213.646 201.08C213.646 201.805 213.428 202.525 212.99 203.24C212.564 203.955 212.046 204.611 211.438 205.208C210.83 205.805 210.046 206.515 209.086 207.336L208.83 207.56H213.838V209.048H206.59L206.43 207.56ZM219.761 196.648C220.465 196.648 221.1 196.776 221.665 197.032C222.231 197.288 222.668 197.645 222.977 198.104C223.297 198.552 223.457 199.069 223.457 199.656C223.457 200.232 223.297 200.749 222.977 201.208C222.668 201.656 222.231 202.008 221.665 202.264C221.1 202.52 220.465 202.648 219.761 202.648C219.057 202.648 218.423 202.52 217.857 202.264C217.303 202.008 216.865 201.656 216.545 201.208C216.225 200.749 216.065 200.232 216.065 199.656C216.065 199.069 216.225 198.552 216.545 198.104C216.865 197.645 217.303 197.288 217.857 197.032C218.423 196.776 219.057 196.648 219.761 196.648ZM219.761 198.088C219.175 198.088 218.695 198.232 218.321 198.52C217.948 198.797 217.761 199.176 217.761 199.656C217.761 200.125 217.948 200.504 218.321 200.792C218.695 201.069 219.175 201.208 219.761 201.208C220.359 201.208 220.844 201.069 221.217 200.792C221.591 200.504 221.777 200.125 221.777 199.656C221.777 199.176 221.591 198.797 221.217 198.52C220.844 198.232 220.359 198.088 219.761 198.088ZM226.961 196.04V210.296H225.201V196.04H226.961ZM215.153 203.624C216.956 203.624 218.593 203.597 220.065 203.544C221.548 203.48 222.967 203.341 224.321 203.128L224.433 204.424C223.356 204.637 222.113 204.797 220.705 204.904V209.848H218.945V205.016C217.793 205.059 216.599 205.08 215.361 205.08L215.153 203.624Z" fill="black"/>
<path d="M70.2653 356.032C70.7773 356.331 71.1879 356.736 71.4973 357.248C71.8066 357.749 71.9613 358.251 71.9613 358.752C71.9613 359.403 71.7906 359.989 71.4493 360.512C71.1186 361.024 70.6546 361.424 70.0573 361.712C69.4599 362 68.7773 362.144 68.0093 362.144C67.2519 362.144 66.5746 361.995 65.9773 361.696C65.3799 361.397 64.9106 360.987 64.5693 360.464C64.2386 359.931 64.0733 359.328 64.0733 358.656H65.7693C65.7693 359.243 65.9773 359.723 66.3933 360.096C66.8093 360.459 67.3479 360.64 68.0093 360.64C68.6813 360.64 69.2306 360.459 69.6573 360.096C70.0946 359.723 70.3133 359.243 70.3133 358.656C70.3133 358.091 70.0999 357.632 69.6733 357.28C69.2466 356.917 68.7026 356.736 68.0413 356.736H67.2093V355.312H68.0573C68.6653 355.312 69.1613 355.152 69.5453 354.832C69.9399 354.501 70.1373 354.08 70.1373 353.568C70.1373 353.045 69.9506 352.624 69.5773 352.304C69.2039 351.973 68.7186 351.808 68.1213 351.808C67.5346 351.808 67.0546 351.973 66.6813 352.304C66.3079 352.635 66.1213 353.061 66.1213 353.584H64.4253C64.4253 352.944 64.5799 352.379 64.8893 351.888C65.2093 351.387 65.6466 350.997 66.2013 350.72C66.7666 350.443 67.4066 350.304 68.1213 350.304C68.8253 350.304 69.4546 350.443 70.0093 350.72C70.5639 350.987 70.9959 351.36 71.3053 351.84C71.6253 352.32 71.7853 352.864 71.7853 353.472C71.7853 353.931 71.6466 354.4 71.3693 354.88C71.0919 355.349 70.7239 355.733 70.2653 356.032ZM77.8784 349.648C78.5824 349.648 79.217 349.776 79.7824 350.032C80.3477 350.288 80.785 350.645 81.0944 351.104C81.4144 351.552 81.5744 352.069 81.5744 352.656C81.5744 353.232 81.4144 353.749 81.0944 354.208C80.785 354.656 80.3477 355.008 79.7824 355.264C79.217 355.52 78.5824 355.648 77.8784 355.648C77.1744 355.648 76.5397 355.52 75.9744 355.264C75.4197 355.008 74.9824 354.656 74.6624 354.208C74.3424 353.749 74.1824 353.232 74.1824 352.656C74.1824 352.069 74.3424 351.552 74.6624 351.104C74.9824 350.645 75.4197 350.288 75.9744 350.032C76.5397 349.776 77.1744 349.648 77.8784 349.648ZM77.8784 351.088C77.2917 351.088 76.8117 351.232 76.4384 351.52C76.065 351.797 75.8784 352.176 75.8784 352.656C75.8784 353.125 76.065 353.504 76.4384 353.792C76.8117 354.069 77.2917 354.208 77.8784 354.208C78.4757 354.208 78.961 354.069 79.3344 353.792C79.7077 353.504 79.8944 353.125 79.8944 352.656C79.8944 352.176 79.7077 351.797 79.3344 351.52C78.961 351.232 78.4757 351.088 77.8784 351.088ZM85.0784 349.04V363.296H83.3184V349.04H85.0784ZM73.2704 356.624C75.073 356.624 76.7104 356.597 78.1824 356.544C79.665 356.48 81.0837 356.341 82.4384 356.128L82.5504 357.424C81.473 357.637 80.2304 357.797 78.8224 357.904V362.848H77.0624V358.016C75.9104 358.059 74.7157 358.08 73.4784 358.08L73.2704 356.624Z" fill="black"/>
<defs>
<filter id="filter0_f_165_199" x="0" y="0" width="98" height="100" filterUnits="userSpaceOnUse" color-interpolation-filters="sRGB">
<feFlood flood-opacity="0" result="BackgroundImageFix"/>
<feBlend mode="normal" in="SourceGraphic" in2="BackgroundImageFix" result="shape"/>
<feGaussianBlur stdDeviation="20" result="effect1_foregroundBlur_165_199"/>
</filter>
<filter id="filter1_f_165_199" x="24" y="307" width="99" height="101" filterUnits="userSpaceOnUse" color-interpolation-filters="sRGB">
<feFlood flood-opacity="0" result="BackgroundImageFix"/>
<feBlend mode="normal" in="SourceGraphic" in2="BackgroundImageFix" result="shape"/>
<feGaussianBlur stdDeviation="20" result="effect1_foregroundBlur_165_199"/>
</filter>
<filter id="filter2_f_165_199" x="166" y="153" width="98" height="100" filterUnits="userSpaceOnUse" color-interpolation-filters="sRGB">
<feFlood flood-opacity="0" result="BackgroundImageFix"/>
<feBlend mode="normal" in="SourceGraphic" in2="BackgroundImageFix" result="shape"/>
<feGaussianBlur stdDeviation="20" result="effect1_foregroundBlur_165_199"/>
</filter>
</defs>
</svg>
